M48
; DRILL file {KiCad 9.0.0} date 2026-04-11T12:55:47+0530
; FORMAT={-:-/ absolute / metric / decimal}
; #@! TF.CreationDate,2026-04-11T12:55:47+05:30
; #@! TF.GenerationSoftware,Kicad,Pcbnew,9.0.0
; #@! TF.FileFunction,MixedPlating,1,2
FMAT,2
METRIC
; #@! TA.AperFunction,Plated,PTH,ViaDrill
T1C0.300
; #@! TA.AperFunction,Plated,PTH,ComponentDrill
T2C1.000
; #@! TA.AperFunction,Plated,PTH,ComponentDrill
T3C1.200
; #@! TA.AperFunction,Plated,PTH,ComponentDrill
T4C1.270
; #@! TA.AperFunction,NonPlated,NPTH,ComponentDrill
T5C3.200
%
G90
G05
T1
X132.25Y-100.75
X133.0Y-97.75
X172.0Y-94.0
T2
X120.4Y-111.475
X120.4Y-121.475
X122.9Y-111.475
X122.9Y-121.475
X138.885Y-106.902
X139.085Y-127.102
X141.485Y-106.802
X141.485Y-127.102
X143.985Y-106.802
X144.085Y-127.102
X146.485Y-106.802
X146.585Y-127.102
X146.7Y-82.84
X146.7Y-103.16
X148.985Y-127.102
X149.085Y-106.802
X149.24Y-82.84
X149.24Y-103.16
X151.585Y-106.802
X151.685Y-127.202
X151.78Y-82.84
X151.78Y-103.16
X154.185Y-106.802
X154.185Y-127.202
X154.32Y-82.84
X154.32Y-103.16
X156.685Y-106.802
X156.785Y-127.202
X156.86Y-82.84
X156.86Y-103.16
X159.185Y-106.802
X159.285Y-127.202
X159.4Y-82.84
X159.4Y-103.16
X161.785Y-106.802
X161.785Y-127.202
X164.285Y-106.802
X164.385Y-127.202
X164.48Y-90.46
X164.48Y-93.0
X164.48Y-95.54
X166.885Y-106.802
X166.885Y-127.202
X169.385Y-106.802
X171.885Y-106.802
X174.485Y-106.902
X176.985Y-106.902
T3
X118.156Y-92.999
X118.156Y-95.539
X135.936Y-92.999
X135.936Y-95.539
X144.16Y-90.46
X144.16Y-93.0
T4
X168.07Y-84.06
X168.07Y-86.6
X168.07Y-89.14
X168.07Y-91.68
X168.07Y-94.22
X168.07Y-96.76
X168.07Y-99.3
X168.07Y-101.84
T5
X179.83Y-84.89
X179.83Y-101.01
M30
