%TF.GenerationSoftware,KiCad,Pcbnew,9.0.0*%
%TF.CreationDate,2026-04-11T12:52:10+05:30*%
%TF.ProjectId,E-01 Drive,452d3031-2044-4726-9976-652e6b696361,1*%
%TF.SameCoordinates,Original*%
%TF.FileFunction,Legend,Top*%
%TF.FilePolarity,Positive*%
%FSLAX46Y46*%
G04 Gerber Fmt 4.6, Leading zero omitted, Abs format (unit mm)*
G04 Created by KiCad (PCBNEW 9.0.0) date 2026-04-11 12:52:10*
%MOMM*%
%LPD*%
G01*
G04 APERTURE LIST*
%ADD10C,0.100000*%
%ADD11C,0.150000*%
%ADD12C,0.200000*%
%ADD13C,0.160000*%
%ADD14C,0.050000*%
%ADD15C,0.120000*%
%ADD16C,0.127000*%
G04 APERTURE END LIST*
D10*
X116137217Y-127348609D02*
X116280074Y-127396228D01*
X116280074Y-127396228D02*
X116327693Y-127443847D01*
X116327693Y-127443847D02*
X116375312Y-127539085D01*
X116375312Y-127539085D02*
X116375312Y-127681942D01*
X116375312Y-127681942D02*
X116327693Y-127777180D01*
X116327693Y-127777180D02*
X116280074Y-127824800D01*
X116280074Y-127824800D02*
X116184836Y-127872419D01*
X116184836Y-127872419D02*
X115803884Y-127872419D01*
X115803884Y-127872419D02*
X115803884Y-126872419D01*
X115803884Y-126872419D02*
X116137217Y-126872419D01*
X116137217Y-126872419D02*
X116232455Y-126920038D01*
X116232455Y-126920038D02*
X116280074Y-126967657D01*
X116280074Y-126967657D02*
X116327693Y-127062895D01*
X116327693Y-127062895D02*
X116327693Y-127158133D01*
X116327693Y-127158133D02*
X116280074Y-127253371D01*
X116280074Y-127253371D02*
X116232455Y-127300990D01*
X116232455Y-127300990D02*
X116137217Y-127348609D01*
X116137217Y-127348609D02*
X115803884Y-127348609D01*
X117232455Y-127205752D02*
X117232455Y-127872419D01*
X116803884Y-127205752D02*
X116803884Y-127729561D01*
X116803884Y-127729561D02*
X116851503Y-127824800D01*
X116851503Y-127824800D02*
X116946741Y-127872419D01*
X116946741Y-127872419D02*
X117089598Y-127872419D01*
X117089598Y-127872419D02*
X117184836Y-127824800D01*
X117184836Y-127824800D02*
X117232455Y-127777180D01*
X118280074Y-127872419D02*
X117946741Y-127396228D01*
X117708646Y-127872419D02*
X117708646Y-126872419D01*
X117708646Y-126872419D02*
X118089598Y-126872419D01*
X118089598Y-126872419D02*
X118184836Y-126920038D01*
X118184836Y-126920038D02*
X118232455Y-126967657D01*
X118232455Y-126967657D02*
X118280074Y-127062895D01*
X118280074Y-127062895D02*
X118280074Y-127205752D01*
X118280074Y-127205752D02*
X118232455Y-127300990D01*
X118232455Y-127300990D02*
X118184836Y-127348609D01*
X118184836Y-127348609D02*
X118089598Y-127396228D01*
X118089598Y-127396228D02*
X117708646Y-127396228D01*
X118708646Y-127872419D02*
X118708646Y-126872419D01*
X118708646Y-126872419D02*
X119280074Y-127872419D01*
X119280074Y-127872419D02*
X119280074Y-126872419D01*
X120375313Y-127205752D02*
X120756265Y-127205752D01*
X120518170Y-126872419D02*
X120518170Y-127729561D01*
X120518170Y-127729561D02*
X120565789Y-127824800D01*
X120565789Y-127824800D02*
X120661027Y-127872419D01*
X120661027Y-127872419D02*
X120756265Y-127872419D01*
X121089599Y-127872419D02*
X121089599Y-126872419D01*
X121518170Y-127872419D02*
X121518170Y-127348609D01*
X121518170Y-127348609D02*
X121470551Y-127253371D01*
X121470551Y-127253371D02*
X121375313Y-127205752D01*
X121375313Y-127205752D02*
X121232456Y-127205752D01*
X121232456Y-127205752D02*
X121137218Y-127253371D01*
X121137218Y-127253371D02*
X121089599Y-127300990D01*
X121994361Y-127348609D02*
X122327694Y-127348609D01*
X122470551Y-127872419D02*
X121994361Y-127872419D01*
X121994361Y-127872419D02*
X121994361Y-126872419D01*
X121994361Y-126872419D02*
X122470551Y-126872419D01*
X123661028Y-127872419D02*
X123661028Y-126872419D01*
X124089599Y-127872419D02*
X124089599Y-127348609D01*
X124089599Y-127348609D02*
X124041980Y-127253371D01*
X124041980Y-127253371D02*
X123946742Y-127205752D01*
X123946742Y-127205752D02*
X123803885Y-127205752D01*
X123803885Y-127205752D02*
X123708647Y-127253371D01*
X123708647Y-127253371D02*
X123661028Y-127300990D01*
X124518171Y-127586704D02*
X124994361Y-127586704D01*
X124422933Y-127872419D02*
X124756266Y-126872419D01*
X124756266Y-126872419D02*
X125089599Y-127872419D01*
X125422933Y-127872419D02*
X125422933Y-127205752D01*
X125422933Y-127396228D02*
X125470552Y-127300990D01*
X125470552Y-127300990D02*
X125518171Y-127253371D01*
X125518171Y-127253371D02*
X125613409Y-127205752D01*
X125613409Y-127205752D02*
X125708647Y-127205752D01*
X126470552Y-127872419D02*
X126470552Y-126872419D01*
X126470552Y-127824800D02*
X126375314Y-127872419D01*
X126375314Y-127872419D02*
X126184838Y-127872419D01*
X126184838Y-127872419D02*
X126089600Y-127824800D01*
X126089600Y-127824800D02*
X126041981Y-127777180D01*
X126041981Y-127777180D02*
X125994362Y-127681942D01*
X125994362Y-127681942D02*
X125994362Y-127396228D01*
X125994362Y-127396228D02*
X126041981Y-127300990D01*
X126041981Y-127300990D02*
X126089600Y-127253371D01*
X126089600Y-127253371D02*
X126184838Y-127205752D01*
X126184838Y-127205752D02*
X126375314Y-127205752D01*
X126375314Y-127205752D02*
X126470552Y-127253371D01*
X126851505Y-126872419D02*
X127089600Y-127872419D01*
X127089600Y-127872419D02*
X127280076Y-127158133D01*
X127280076Y-127158133D02*
X127470552Y-127872419D01*
X127470552Y-127872419D02*
X127708648Y-126872419D01*
X128518171Y-127872419D02*
X128518171Y-127348609D01*
X128518171Y-127348609D02*
X128470552Y-127253371D01*
X128470552Y-127253371D02*
X128375314Y-127205752D01*
X128375314Y-127205752D02*
X128184838Y-127205752D01*
X128184838Y-127205752D02*
X128089600Y-127253371D01*
X128518171Y-127824800D02*
X128422933Y-127872419D01*
X128422933Y-127872419D02*
X128184838Y-127872419D01*
X128184838Y-127872419D02*
X128089600Y-127824800D01*
X128089600Y-127824800D02*
X128041981Y-127729561D01*
X128041981Y-127729561D02*
X128041981Y-127634323D01*
X128041981Y-127634323D02*
X128089600Y-127539085D01*
X128089600Y-127539085D02*
X128184838Y-127491466D01*
X128184838Y-127491466D02*
X128422933Y-127491466D01*
X128422933Y-127491466D02*
X128518171Y-127443847D01*
X129565790Y-127872419D02*
X129232457Y-127396228D01*
X128994362Y-127872419D02*
X128994362Y-126872419D01*
X128994362Y-126872419D02*
X129375314Y-126872419D01*
X129375314Y-126872419D02*
X129470552Y-126920038D01*
X129470552Y-126920038D02*
X129518171Y-126967657D01*
X129518171Y-126967657D02*
X129565790Y-127062895D01*
X129565790Y-127062895D02*
X129565790Y-127205752D01*
X129565790Y-127205752D02*
X129518171Y-127300990D01*
X129518171Y-127300990D02*
X129470552Y-127348609D01*
X129470552Y-127348609D02*
X129375314Y-127396228D01*
X129375314Y-127396228D02*
X128994362Y-127396228D01*
X129994362Y-127348609D02*
X130327695Y-127348609D01*
X130470552Y-127872419D02*
X129994362Y-127872419D01*
X129994362Y-127872419D02*
X129994362Y-126872419D01*
X129994362Y-126872419D02*
X130470552Y-126872419D01*
D11*
X157010380Y-116409726D02*
X157010380Y-117437821D01*
X157010380Y-117437821D02*
X157070857Y-117558773D01*
X157070857Y-117558773D02*
X157131333Y-117619250D01*
X157131333Y-117619250D02*
X157252285Y-117679726D01*
X157252285Y-117679726D02*
X157494190Y-117679726D01*
X157494190Y-117679726D02*
X157615142Y-117619250D01*
X157615142Y-117619250D02*
X157675619Y-117558773D01*
X157675619Y-117558773D02*
X157736095Y-117437821D01*
X157736095Y-117437821D02*
X157736095Y-116409726D01*
X159006095Y-117679726D02*
X158280380Y-117679726D01*
X158643237Y-117679726D02*
X158643237Y-116409726D01*
X158643237Y-116409726D02*
X158522285Y-116591154D01*
X158522285Y-116591154D02*
X158401333Y-116712107D01*
X158401333Y-116712107D02*
X158280380Y-116772583D01*
D12*
G36*
X133994554Y-117152036D02*
G01*
X134019223Y-117176704D01*
X134049028Y-117236314D01*
X134049028Y-117493659D01*
X133725219Y-117493659D01*
X133725219Y-117236314D01*
X133755024Y-117176704D01*
X133779692Y-117152035D01*
X133839302Y-117122231D01*
X133934945Y-117122231D01*
X133994554Y-117152036D01*
G37*
G36*
X134836330Y-120519056D02*
G01*
X133414108Y-120519056D01*
X133414108Y-119831755D01*
X133525219Y-119831755D01*
X133525219Y-119974612D01*
X133526191Y-119984485D01*
X133526004Y-119987119D01*
X133526791Y-119990582D01*
X133527140Y-119994121D01*
X133528151Y-119996563D01*
X133530351Y-120006235D01*
X133577970Y-120149091D01*
X133585961Y-120166992D01*
X133588316Y-120169707D01*
X133589691Y-120173026D01*
X133602127Y-120188180D01*
X133697365Y-120283418D01*
X133705031Y-120289709D01*
X133706764Y-120291707D01*
X133709775Y-120293602D01*
X133712519Y-120295854D01*
X133714956Y-120296863D01*
X133723355Y-120302150D01*
X133818592Y-120349769D01*
X133820020Y-120350315D01*
X133820600Y-120350745D01*
X133828776Y-120353666D01*
X133836901Y-120356775D01*
X133837621Y-120356826D01*
X133839060Y-120357340D01*
X134029536Y-120404959D01*
X134032917Y-120405459D01*
X134034281Y-120406024D01*
X134041631Y-120406747D01*
X134048929Y-120407827D01*
X134050387Y-120407609D01*
X134053790Y-120407945D01*
X134196647Y-120407945D01*
X134200049Y-120407609D01*
X134201508Y-120407827D01*
X134208805Y-120406747D01*
X134216156Y-120406024D01*
X134217519Y-120405459D01*
X134220901Y-120404959D01*
X134411376Y-120357340D01*
X134412813Y-120356826D01*
X134413536Y-120356775D01*
X134421660Y-120353666D01*
X134429837Y-120350745D01*
X134430417Y-120350314D01*
X134431844Y-120349769D01*
X134527082Y-120302150D01*
X134535474Y-120296867D01*
X134537918Y-120295855D01*
X134540667Y-120293598D01*
X134543672Y-120291707D01*
X134545401Y-120289712D01*
X134553071Y-120283418D01*
X134648311Y-120188180D01*
X134660747Y-120173027D01*
X134662122Y-120169707D01*
X134664477Y-120166992D01*
X134672468Y-120149092D01*
X134720087Y-120006235D01*
X134722286Y-119996562D01*
X134723298Y-119994121D01*
X134723646Y-119990583D01*
X134724434Y-119987120D01*
X134724246Y-119984485D01*
X134725219Y-119974612D01*
X134725219Y-119879374D01*
X134724246Y-119869500D01*
X134724434Y-119866866D01*
X134723646Y-119863402D01*
X134723298Y-119859865D01*
X134722286Y-119857423D01*
X134720087Y-119847751D01*
X134672468Y-119704894D01*
X134664477Y-119686994D01*
X134662122Y-119684278D01*
X134660747Y-119680959D01*
X134648310Y-119665805D01*
X134600690Y-119618187D01*
X134585537Y-119605750D01*
X134560046Y-119595192D01*
X134549489Y-119590819D01*
X134529980Y-119588898D01*
X134196647Y-119588898D01*
X134177138Y-119590819D01*
X134141090Y-119605751D01*
X134113500Y-119633341D01*
X134098568Y-119669389D01*
X134096647Y-119688898D01*
X134096647Y-119879374D01*
X134098568Y-119898883D01*
X134113500Y-119934931D01*
X134141090Y-119962521D01*
X134177138Y-119977453D01*
X134216156Y-119977453D01*
X134252204Y-119962521D01*
X134279794Y-119934931D01*
X134294726Y-119898883D01*
X134296647Y-119879374D01*
X134296647Y-119788898D01*
X134488560Y-119788898D01*
X134490197Y-119790535D01*
X134525219Y-119895600D01*
X134525219Y-119958385D01*
X134490197Y-120063450D01*
X134423127Y-120130520D01*
X134352218Y-120165974D01*
X134184337Y-120207945D01*
X134066099Y-120207945D01*
X133898218Y-120165974D01*
X133827313Y-120130522D01*
X133760240Y-120063449D01*
X133725219Y-119958385D01*
X133725219Y-119855362D01*
X133762281Y-119781239D01*
X133769287Y-119762930D01*
X133772053Y-119724010D01*
X133759714Y-119686994D01*
X133734149Y-119657517D01*
X133699251Y-119640068D01*
X133660331Y-119637303D01*
X133623315Y-119649641D01*
X133593838Y-119675206D01*
X133583395Y-119691796D01*
X133535776Y-119787034D01*
X133528770Y-119805342D01*
X133528515Y-119808925D01*
X133527140Y-119812246D01*
X133525219Y-119831755D01*
X133414108Y-119831755D01*
X133414108Y-119240817D01*
X133527140Y-119240817D01*
X133527140Y-119279835D01*
X133542072Y-119315883D01*
X133569662Y-119343473D01*
X133605710Y-119358405D01*
X133625219Y-119360326D01*
X134625219Y-119360326D01*
X134644728Y-119358405D01*
X134680776Y-119343473D01*
X134708366Y-119315883D01*
X134723298Y-119279835D01*
X134725219Y-119260326D01*
X134725219Y-118784136D01*
X134723298Y-118764627D01*
X134708366Y-118728579D01*
X134680776Y-118700989D01*
X134644728Y-118686057D01*
X134605710Y-118686057D01*
X134569662Y-118700989D01*
X134542072Y-118728579D01*
X134527140Y-118764627D01*
X134525219Y-118784136D01*
X134525219Y-119160326D01*
X133625219Y-119160326D01*
X133605710Y-119162247D01*
X133569662Y-119177179D01*
X133542072Y-119204769D01*
X133527140Y-119240817D01*
X133414108Y-119240817D01*
X133414108Y-117929225D01*
X133525244Y-117929225D01*
X133533708Y-117967314D01*
X133556104Y-117999265D01*
X133571531Y-118011359D01*
X133962765Y-118260326D01*
X133571531Y-118509293D01*
X133556104Y-118521387D01*
X133533708Y-118553338D01*
X133525244Y-118591427D01*
X133532000Y-118629856D01*
X133552947Y-118662774D01*
X133584898Y-118685170D01*
X133622987Y-118693634D01*
X133661416Y-118686878D01*
X133678907Y-118678025D01*
X134178148Y-118360326D01*
X134625219Y-118360326D01*
X134644728Y-118358405D01*
X134680776Y-118343473D01*
X134708366Y-118315883D01*
X134723298Y-118279835D01*
X134723298Y-118240817D01*
X134708366Y-118204769D01*
X134680776Y-118177179D01*
X134644728Y-118162247D01*
X134625219Y-118160326D01*
X134178148Y-118160326D01*
X133678907Y-117842627D01*
X133661416Y-117833774D01*
X133622987Y-117827018D01*
X133584898Y-117835482D01*
X133552947Y-117857878D01*
X133532000Y-117890796D01*
X133525244Y-117929225D01*
X133414108Y-117929225D01*
X133414108Y-117212707D01*
X133525219Y-117212707D01*
X133525219Y-117593659D01*
X133527140Y-117613168D01*
X133542072Y-117649216D01*
X133569662Y-117676806D01*
X133605710Y-117691738D01*
X133625219Y-117693659D01*
X134625219Y-117693659D01*
X134644728Y-117691738D01*
X134680776Y-117676806D01*
X134708366Y-117649216D01*
X134723298Y-117613168D01*
X134723298Y-117574150D01*
X134708366Y-117538102D01*
X134680776Y-117510512D01*
X134644728Y-117495580D01*
X134625219Y-117493659D01*
X134249028Y-117493659D01*
X134249028Y-117212707D01*
X134247107Y-117193198D01*
X134245731Y-117189877D01*
X134245477Y-117186294D01*
X134238471Y-117167985D01*
X134190852Y-117072748D01*
X134185566Y-117064351D01*
X134184556Y-117061911D01*
X134182302Y-117059165D01*
X134180409Y-117056157D01*
X134178411Y-117054424D01*
X134172119Y-117046758D01*
X134124501Y-116999139D01*
X134116830Y-116992844D01*
X134115101Y-116990850D01*
X134112093Y-116988956D01*
X134109347Y-116986703D01*
X134106907Y-116985692D01*
X134098511Y-116980407D01*
X134003273Y-116932788D01*
X133984965Y-116925782D01*
X133981381Y-116925527D01*
X133978061Y-116924152D01*
X133958552Y-116922231D01*
X133815695Y-116922231D01*
X133796186Y-116924152D01*
X133792865Y-116925527D01*
X133789282Y-116925782D01*
X133770973Y-116932788D01*
X133675736Y-116980407D01*
X133667339Y-116985692D01*
X133664899Y-116986703D01*
X133662153Y-116988956D01*
X133659145Y-116990850D01*
X133657412Y-116992847D01*
X133649746Y-116999140D01*
X133602127Y-117046758D01*
X133595832Y-117054428D01*
X133593838Y-117056158D01*
X133591944Y-117059165D01*
X133589691Y-117061912D01*
X133588680Y-117064351D01*
X133583395Y-117072748D01*
X133535776Y-117167986D01*
X133528770Y-117186294D01*
X133528515Y-117189877D01*
X133527140Y-117193198D01*
X133525219Y-117212707D01*
X133414108Y-117212707D01*
X133414108Y-116002722D01*
X133527140Y-116002722D01*
X133527140Y-116041740D01*
X133542072Y-116077788D01*
X133569662Y-116105378D01*
X133605710Y-116120310D01*
X133625219Y-116122231D01*
X134001409Y-116122231D01*
X134001409Y-116493659D01*
X133625219Y-116493659D01*
X133605710Y-116495580D01*
X133569662Y-116510512D01*
X133542072Y-116538102D01*
X133527140Y-116574150D01*
X133527140Y-116613168D01*
X133542072Y-116649216D01*
X133569662Y-116676806D01*
X133605710Y-116691738D01*
X133625219Y-116693659D01*
X134625219Y-116693659D01*
X134644728Y-116691738D01*
X134680776Y-116676806D01*
X134708366Y-116649216D01*
X134723298Y-116613168D01*
X134723298Y-116574150D01*
X134708366Y-116538102D01*
X134680776Y-116510512D01*
X134644728Y-116495580D01*
X134625219Y-116493659D01*
X134201409Y-116493659D01*
X134201409Y-116122231D01*
X134625219Y-116122231D01*
X134644728Y-116120310D01*
X134680776Y-116105378D01*
X134708366Y-116077788D01*
X134723298Y-116041740D01*
X134723298Y-116002722D01*
X134708366Y-115966674D01*
X134680776Y-115939084D01*
X134644728Y-115924152D01*
X134625219Y-115922231D01*
X133625219Y-115922231D01*
X133605710Y-115924152D01*
X133569662Y-115939084D01*
X133542072Y-115966674D01*
X133527140Y-116002722D01*
X133414108Y-116002722D01*
X133414108Y-114403183D01*
X133525219Y-114403183D01*
X133525219Y-114641278D01*
X133527140Y-114660787D01*
X133528515Y-114664107D01*
X133528770Y-114667691D01*
X133535776Y-114685999D01*
X133583395Y-114781237D01*
X133588680Y-114789633D01*
X133589691Y-114792073D01*
X133591944Y-114794819D01*
X133593838Y-114797827D01*
X133595832Y-114799556D01*
X133602127Y-114807227D01*
X133649746Y-114854845D01*
X133657412Y-114861137D01*
X133659145Y-114863135D01*
X133662153Y-114865028D01*
X133664899Y-114867282D01*
X133667339Y-114868292D01*
X133675736Y-114873578D01*
X133770973Y-114921197D01*
X133789282Y-114928203D01*
X133792865Y-114928457D01*
X133796186Y-114929833D01*
X133815695Y-114931754D01*
X133910933Y-114931754D01*
X133930442Y-114929833D01*
X133933762Y-114928457D01*
X133937346Y-114928203D01*
X133955654Y-114921197D01*
X134050892Y-114873578D01*
X134059288Y-114868292D01*
X134061728Y-114867282D01*
X134064474Y-114865028D01*
X134067482Y-114863135D01*
X134069211Y-114861140D01*
X134076882Y-114854846D01*
X134124500Y-114807227D01*
X134130792Y-114799560D01*
X134132790Y-114797828D01*
X134134683Y-114794819D01*
X134136937Y-114792074D01*
X134137947Y-114789633D01*
X134143233Y-114781237D01*
X134190852Y-114686000D01*
X134191398Y-114684571D01*
X134191828Y-114683992D01*
X134194749Y-114675815D01*
X134197858Y-114667691D01*
X134197909Y-114666970D01*
X134198423Y-114665532D01*
X134243379Y-114485706D01*
X134278833Y-114414799D01*
X134303501Y-114390130D01*
X134363111Y-114360326D01*
X134411135Y-114360326D01*
X134470746Y-114390132D01*
X134495414Y-114414799D01*
X134525219Y-114474409D01*
X134525219Y-114672670D01*
X134482732Y-114800131D01*
X134478385Y-114819247D01*
X134481151Y-114858167D01*
X134498601Y-114893066D01*
X134528077Y-114918631D01*
X134565093Y-114930969D01*
X134604013Y-114928203D01*
X134638912Y-114910753D01*
X134664477Y-114881277D01*
X134672468Y-114863377D01*
X134720087Y-114720520D01*
X134722286Y-114710847D01*
X134723298Y-114708406D01*
X134723646Y-114704868D01*
X134724434Y-114701405D01*
X134724246Y-114698770D01*
X134725219Y-114688897D01*
X134725219Y-114450802D01*
X134723298Y-114431293D01*
X134721922Y-114427972D01*
X134721668Y-114424389D01*
X134714662Y-114406080D01*
X134667043Y-114310843D01*
X134661757Y-114302446D01*
X134660747Y-114300006D01*
X134658493Y-114297260D01*
X134656600Y-114294252D01*
X134654603Y-114292520D01*
X134648310Y-114284852D01*
X134600690Y-114237234D01*
X134593020Y-114230939D01*
X134591291Y-114228945D01*
X134588286Y-114227053D01*
X134585537Y-114224797D01*
X134583093Y-114223785D01*
X134574701Y-114218502D01*
X134479463Y-114170883D01*
X134461155Y-114163877D01*
X134457571Y-114163622D01*
X134454251Y-114162247D01*
X134434742Y-114160326D01*
X134339504Y-114160326D01*
X134319995Y-114162247D01*
X134316674Y-114163622D01*
X134313091Y-114163877D01*
X134294782Y-114170883D01*
X134199545Y-114218502D01*
X134191148Y-114223787D01*
X134188708Y-114224798D01*
X134185962Y-114227051D01*
X134182954Y-114228945D01*
X134181221Y-114230942D01*
X134173555Y-114237235D01*
X134125936Y-114284853D01*
X134119641Y-114292523D01*
X134117647Y-114294253D01*
X134115753Y-114297260D01*
X134113500Y-114300007D01*
X134112489Y-114302446D01*
X134107204Y-114310843D01*
X134059585Y-114406081D01*
X134059039Y-114407507D01*
X134058609Y-114408088D01*
X134055687Y-114416264D01*
X134052579Y-114424389D01*
X134052527Y-114425111D01*
X134052014Y-114426549D01*
X134007057Y-114606373D01*
X133971604Y-114677280D01*
X133946935Y-114701948D01*
X133887326Y-114731754D01*
X133839302Y-114731754D01*
X133779692Y-114701949D01*
X133755024Y-114677280D01*
X133725219Y-114617670D01*
X133725219Y-114419410D01*
X133767706Y-114291949D01*
X133772053Y-114272834D01*
X133769287Y-114233914D01*
X133751837Y-114199015D01*
X133722361Y-114173450D01*
X133685345Y-114161111D01*
X133646425Y-114163878D01*
X133611526Y-114181327D01*
X133585961Y-114210803D01*
X133577970Y-114228704D01*
X133530351Y-114371560D01*
X133528151Y-114381231D01*
X133527140Y-114383674D01*
X133526791Y-114387212D01*
X133526004Y-114390676D01*
X133526191Y-114393309D01*
X133525219Y-114403183D01*
X133414108Y-114403183D01*
X133414108Y-113307945D01*
X133525219Y-113307945D01*
X133525219Y-113926992D01*
X133527140Y-113946501D01*
X133542072Y-113982549D01*
X133569662Y-114010139D01*
X133605710Y-114025071D01*
X133644728Y-114025071D01*
X133680776Y-114010139D01*
X133708366Y-113982549D01*
X133723298Y-113946501D01*
X133725219Y-113926992D01*
X133725219Y-113528321D01*
X133940321Y-113716536D01*
X133948754Y-113722565D01*
X133950614Y-113724425D01*
X133952377Y-113725155D01*
X133956268Y-113727937D01*
X133971656Y-113733141D01*
X133986662Y-113739357D01*
X133990036Y-113739357D01*
X133993229Y-113740437D01*
X134009432Y-113739357D01*
X134025680Y-113739357D01*
X134028795Y-113738066D01*
X134032161Y-113737842D01*
X134046726Y-113730639D01*
X134061728Y-113724425D01*
X134064111Y-113722041D01*
X134067136Y-113720546D01*
X134077840Y-113708312D01*
X134089318Y-113696835D01*
X134090607Y-113693721D01*
X134092830Y-113691182D01*
X134098035Y-113675790D01*
X134104250Y-113660787D01*
X134104718Y-113656027D01*
X134105330Y-113654220D01*
X134105155Y-113651595D01*
X134106171Y-113641278D01*
X134106171Y-113522028D01*
X134135976Y-113462418D01*
X134160644Y-113437749D01*
X134220254Y-113407945D01*
X134411135Y-113407945D01*
X134470746Y-113437751D01*
X134495414Y-113462418D01*
X134525219Y-113522028D01*
X134525219Y-113760528D01*
X134495414Y-113820137D01*
X134459270Y-113856281D01*
X134446833Y-113871434D01*
X134431902Y-113907482D01*
X134431901Y-113946500D01*
X134446832Y-113982549D01*
X134474422Y-114010139D01*
X134510470Y-114025070D01*
X134549488Y-114025071D01*
X134585537Y-114010140D01*
X134600690Y-113997703D01*
X134648310Y-113950085D01*
X134654603Y-113942416D01*
X134656600Y-113940685D01*
X134658493Y-113937676D01*
X134660747Y-113934931D01*
X134661757Y-113932490D01*
X134667043Y-113924094D01*
X134714662Y-113828857D01*
X134721668Y-113810548D01*
X134721922Y-113806964D01*
X134723298Y-113803644D01*
X134725219Y-113784135D01*
X134725219Y-113498421D01*
X134723298Y-113478912D01*
X134721922Y-113475591D01*
X134721668Y-113472008D01*
X134714662Y-113453699D01*
X134667043Y-113358462D01*
X134661757Y-113350065D01*
X134660747Y-113347625D01*
X134658493Y-113344879D01*
X134656600Y-113341871D01*
X134654603Y-113340139D01*
X134648310Y-113332471D01*
X134600690Y-113284853D01*
X134593020Y-113278558D01*
X134591291Y-113276564D01*
X134588286Y-113274672D01*
X134585537Y-113272416D01*
X134583093Y-113271404D01*
X134574701Y-113266121D01*
X134479463Y-113218502D01*
X134461155Y-113211496D01*
X134457571Y-113211241D01*
X134454251Y-113209866D01*
X134434742Y-113207945D01*
X134196647Y-113207945D01*
X134177138Y-113209866D01*
X134173817Y-113211241D01*
X134170234Y-113211496D01*
X134151925Y-113218502D01*
X134056688Y-113266121D01*
X134048291Y-113271406D01*
X134045851Y-113272417D01*
X134043105Y-113274670D01*
X134040097Y-113276564D01*
X134038364Y-113278561D01*
X134030698Y-113284854D01*
X133983079Y-113332472D01*
X133976784Y-113340142D01*
X133974790Y-113341872D01*
X133972896Y-113344879D01*
X133970643Y-113347626D01*
X133969632Y-113350065D01*
X133964347Y-113358462D01*
X133924923Y-113437309D01*
X133691069Y-113232687D01*
X133682635Y-113226657D01*
X133680776Y-113224798D01*
X133679012Y-113224067D01*
X133675122Y-113221286D01*
X133659733Y-113216081D01*
X133644728Y-113209866D01*
X133641354Y-113209866D01*
X133638161Y-113208786D01*
X133621958Y-113209866D01*
X133605710Y-113209866D01*
X133602594Y-113211156D01*
X133599229Y-113211381D01*
X133584668Y-113218581D01*
X133569662Y-113224798D01*
X133567277Y-113227182D01*
X133564254Y-113228678D01*
X133553556Y-113240903D01*
X133542072Y-113252388D01*
X133540781Y-113255502D01*
X133538560Y-113258042D01*
X133533355Y-113273430D01*
X133527140Y-113288436D01*
X133526671Y-113293195D01*
X133526060Y-113295003D01*
X133526234Y-113297627D01*
X133525219Y-113307945D01*
X133414108Y-113307945D01*
X133414108Y-113096834D01*
X134836330Y-113096834D01*
X134836330Y-120519056D01*
G37*
D11*
X120682380Y-111309726D02*
X120682380Y-112337821D01*
X120682380Y-112337821D02*
X120742857Y-112458773D01*
X120742857Y-112458773D02*
X120803333Y-112519250D01*
X120803333Y-112519250D02*
X120924285Y-112579726D01*
X120924285Y-112579726D02*
X121166190Y-112579726D01*
X121166190Y-112579726D02*
X121287142Y-112519250D01*
X121287142Y-112519250D02*
X121347619Y-112458773D01*
X121347619Y-112458773D02*
X121408095Y-112337821D01*
X121408095Y-112337821D02*
X121408095Y-111309726D01*
X122557142Y-111733059D02*
X122557142Y-112579726D01*
X122254761Y-111249250D02*
X121952380Y-112156392D01*
X121952380Y-112156392D02*
X122738571Y-112156392D01*
X120682380Y-121309726D02*
X120682380Y-122337821D01*
X120682380Y-122337821D02*
X120742857Y-122458773D01*
X120742857Y-122458773D02*
X120803333Y-122519250D01*
X120803333Y-122519250D02*
X120924285Y-122579726D01*
X120924285Y-122579726D02*
X121166190Y-122579726D01*
X121166190Y-122579726D02*
X121287142Y-122519250D01*
X121287142Y-122519250D02*
X121347619Y-122458773D01*
X121347619Y-122458773D02*
X121408095Y-122337821D01*
X121408095Y-122337821D02*
X121408095Y-121309726D01*
X122617618Y-121309726D02*
X122012856Y-121309726D01*
X122012856Y-121309726D02*
X121952380Y-121914488D01*
X121952380Y-121914488D02*
X122012856Y-121854011D01*
X122012856Y-121854011D02*
X122133809Y-121793535D01*
X122133809Y-121793535D02*
X122436190Y-121793535D01*
X122436190Y-121793535D02*
X122557142Y-121854011D01*
X122557142Y-121854011D02*
X122617618Y-121914488D01*
X122617618Y-121914488D02*
X122678095Y-122035440D01*
X122678095Y-122035440D02*
X122678095Y-122337821D01*
X122678095Y-122337821D02*
X122617618Y-122458773D01*
X122617618Y-122458773D02*
X122557142Y-122519250D01*
X122557142Y-122519250D02*
X122436190Y-122579726D01*
X122436190Y-122579726D02*
X122133809Y-122579726D01*
X122133809Y-122579726D02*
X122012856Y-122519250D01*
X122012856Y-122519250D02*
X121952380Y-122458773D01*
X152082380Y-92309726D02*
X152082380Y-93337821D01*
X152082380Y-93337821D02*
X152142857Y-93458773D01*
X152142857Y-93458773D02*
X152203333Y-93519250D01*
X152203333Y-93519250D02*
X152324285Y-93579726D01*
X152324285Y-93579726D02*
X152566190Y-93579726D01*
X152566190Y-93579726D02*
X152687142Y-93519250D01*
X152687142Y-93519250D02*
X152747619Y-93458773D01*
X152747619Y-93458773D02*
X152808095Y-93337821D01*
X152808095Y-93337821D02*
X152808095Y-92309726D01*
X153352380Y-92430678D02*
X153412856Y-92370202D01*
X153412856Y-92370202D02*
X153533809Y-92309726D01*
X153533809Y-92309726D02*
X153836190Y-92309726D01*
X153836190Y-92309726D02*
X153957142Y-92370202D01*
X153957142Y-92370202D02*
X154017618Y-92430678D01*
X154017618Y-92430678D02*
X154078095Y-92551630D01*
X154078095Y-92551630D02*
X154078095Y-92672583D01*
X154078095Y-92672583D02*
X154017618Y-92854011D01*
X154017618Y-92854011D02*
X153291904Y-93579726D01*
X153291904Y-93579726D02*
X154078095Y-93579726D01*
D13*
G36*
X150483588Y-92037618D02*
G01*
X150534931Y-92088960D01*
X150565263Y-92210287D01*
X150565263Y-92457261D01*
X150534931Y-92578588D01*
X150483586Y-92629932D01*
X150435902Y-92653775D01*
X150321291Y-92653775D01*
X150273604Y-92629931D01*
X150222261Y-92578588D01*
X150191929Y-92457260D01*
X150191929Y-92210288D01*
X150222261Y-92088961D01*
X150273604Y-92037618D01*
X150321291Y-92013775D01*
X150435902Y-92013775D01*
X150483588Y-92037618D01*
G37*
G36*
X151931207Y-92037618D02*
G01*
X151982550Y-92088960D01*
X152012882Y-92210287D01*
X152012882Y-92457261D01*
X151982550Y-92578588D01*
X151931205Y-92629932D01*
X151883521Y-92653775D01*
X151768910Y-92653775D01*
X151721223Y-92629931D01*
X151669880Y-92578588D01*
X151639548Y-92457260D01*
X151639548Y-92210288D01*
X151669880Y-92088961D01*
X151721223Y-92037618D01*
X151768910Y-92013775D01*
X151883521Y-92013775D01*
X151931207Y-92037618D01*
G37*
G36*
X154487761Y-92041792D02*
G01*
X154541418Y-92095449D01*
X154569781Y-92152173D01*
X154603358Y-92286479D01*
X154603358Y-92381070D01*
X154569781Y-92515375D01*
X154541418Y-92572100D01*
X154487762Y-92625757D01*
X154403708Y-92653775D01*
X154306215Y-92653775D01*
X154306215Y-92013775D01*
X154403708Y-92013775D01*
X154487761Y-92041792D01*
G37*
G36*
X152769300Y-92037617D02*
G01*
X152789038Y-92057354D01*
X152812882Y-92105041D01*
X152812882Y-92181555D01*
X152789038Y-92229242D01*
X152769300Y-92248979D01*
X152721616Y-92272822D01*
X152515739Y-92272822D01*
X152515739Y-92013775D01*
X152721616Y-92013775D01*
X152769300Y-92037617D01*
G37*
G36*
X155359776Y-92037617D02*
G01*
X155379514Y-92057354D01*
X155403358Y-92105041D01*
X155403358Y-92181555D01*
X155379514Y-92229242D01*
X155359776Y-92248979D01*
X155312092Y-92272822D01*
X155106215Y-92272822D01*
X155106215Y-92013775D01*
X155312092Y-92013775D01*
X155359776Y-92037617D01*
G37*
G36*
X157950252Y-92037617D02*
G01*
X157969990Y-92057354D01*
X157993834Y-92105041D01*
X157993834Y-92181555D01*
X157969990Y-92229242D01*
X157950252Y-92248979D01*
X157902568Y-92272822D01*
X157696691Y-92272822D01*
X157696691Y-92013775D01*
X157902568Y-92013775D01*
X157950252Y-92037617D01*
G37*
G36*
X158242723Y-92902664D02*
G01*
X149066850Y-92902664D01*
X149066850Y-91933775D01*
X149155739Y-91933775D01*
X149155739Y-92733775D01*
X149157276Y-92749382D01*
X149169221Y-92778221D01*
X149191293Y-92800293D01*
X149220132Y-92812238D01*
X149251346Y-92812238D01*
X149280185Y-92800293D01*
X149302257Y-92778221D01*
X149314202Y-92749382D01*
X149315739Y-92733775D01*
X149315739Y-92294380D01*
X149429911Y-92539034D01*
X149433293Y-92544744D01*
X149433999Y-92546685D01*
X149435255Y-92548056D01*
X149437903Y-92552527D01*
X149446869Y-92560738D01*
X149455081Y-92569705D01*
X149458300Y-92571207D01*
X149460923Y-92573609D01*
X149472353Y-92577765D01*
X149483367Y-92582905D01*
X149486916Y-92583061D01*
X149490258Y-92584276D01*
X149502405Y-92583741D01*
X149514552Y-92584276D01*
X149517893Y-92583061D01*
X149521443Y-92582905D01*
X149532456Y-92577765D01*
X149543887Y-92573609D01*
X149546509Y-92571207D01*
X149549729Y-92569705D01*
X149557940Y-92560738D01*
X149566907Y-92552527D01*
X149569555Y-92548055D01*
X149570811Y-92546685D01*
X149571515Y-92544747D01*
X149574900Y-92539034D01*
X149689072Y-92294380D01*
X149689072Y-92733775D01*
X149690609Y-92749382D01*
X149702554Y-92778221D01*
X149724626Y-92800293D01*
X149753465Y-92812238D01*
X149784679Y-92812238D01*
X149813518Y-92800293D01*
X149835590Y-92778221D01*
X149847535Y-92749382D01*
X149849072Y-92733775D01*
X149849072Y-92200441D01*
X150031929Y-92200441D01*
X150031929Y-92467108D01*
X150032196Y-92469828D01*
X150032023Y-92470997D01*
X150032887Y-92476841D01*
X150033466Y-92482715D01*
X150033917Y-92483805D01*
X150034318Y-92486511D01*
X150072414Y-92638892D01*
X150077690Y-92653660D01*
X150081230Y-92658439D01*
X150083507Y-92663934D01*
X150093456Y-92676057D01*
X150169646Y-92752248D01*
X150175780Y-92757282D01*
X150177166Y-92758880D01*
X150179574Y-92760395D01*
X150181769Y-92762197D01*
X150183719Y-92763005D01*
X150190438Y-92767234D01*
X150266629Y-92805329D01*
X150281276Y-92810934D01*
X150284142Y-92811137D01*
X150286799Y-92812238D01*
X150302406Y-92813775D01*
X150454787Y-92813775D01*
X150470394Y-92812238D01*
X150473050Y-92811137D01*
X150475917Y-92810934D01*
X150490564Y-92805329D01*
X150566754Y-92767234D01*
X150573468Y-92763007D01*
X150575423Y-92762198D01*
X150577622Y-92760392D01*
X150580026Y-92758880D01*
X150581408Y-92757285D01*
X150587546Y-92752249D01*
X150663736Y-92676058D01*
X150673685Y-92663935D01*
X150675961Y-92658440D01*
X150679503Y-92653660D01*
X150684779Y-92638892D01*
X150722875Y-92486510D01*
X150723275Y-92483803D01*
X150723726Y-92482715D01*
X150724303Y-92476847D01*
X150725169Y-92470997D01*
X150724995Y-92469828D01*
X150725263Y-92467108D01*
X150725263Y-92200441D01*
X150724995Y-92197720D01*
X150725169Y-92196552D01*
X150724303Y-92190701D01*
X150723726Y-92184834D01*
X150723275Y-92183745D01*
X150722875Y-92181039D01*
X150684779Y-92028657D01*
X150679503Y-92013889D01*
X150675961Y-92009109D01*
X150673685Y-92003614D01*
X150663736Y-91991491D01*
X150590412Y-91918168D01*
X150795371Y-91918168D01*
X150795371Y-91949382D01*
X150807316Y-91978221D01*
X150829388Y-92000293D01*
X150858227Y-92012238D01*
X150873834Y-92013775D01*
X151022405Y-92013775D01*
X151022405Y-92733775D01*
X151023942Y-92749382D01*
X151035887Y-92778221D01*
X151057959Y-92800293D01*
X151086798Y-92812238D01*
X151118012Y-92812238D01*
X151146851Y-92800293D01*
X151168923Y-92778221D01*
X151180868Y-92749382D01*
X151182405Y-92733775D01*
X151182405Y-92200441D01*
X151479548Y-92200441D01*
X151479548Y-92467108D01*
X151479815Y-92469828D01*
X151479642Y-92470997D01*
X151480506Y-92476841D01*
X151481085Y-92482715D01*
X151481536Y-92483805D01*
X151481937Y-92486511D01*
X151520033Y-92638892D01*
X151525309Y-92653660D01*
X151528849Y-92658439D01*
X151531126Y-92663934D01*
X151541075Y-92676057D01*
X151617265Y-92752248D01*
X151623399Y-92757282D01*
X151624785Y-92758880D01*
X151627193Y-92760395D01*
X151629388Y-92762197D01*
X151631338Y-92763005D01*
X151638057Y-92767234D01*
X151714248Y-92805329D01*
X151728895Y-92810934D01*
X151731761Y-92811137D01*
X151734418Y-92812238D01*
X151750025Y-92813775D01*
X151902406Y-92813775D01*
X151918013Y-92812238D01*
X151920669Y-92811137D01*
X151923536Y-92810934D01*
X151938183Y-92805329D01*
X152014373Y-92767234D01*
X152021087Y-92763007D01*
X152023042Y-92762198D01*
X152025241Y-92760392D01*
X152027645Y-92758880D01*
X152029027Y-92757285D01*
X152035165Y-92752249D01*
X152111355Y-92676058D01*
X152121304Y-92663935D01*
X152123580Y-92658440D01*
X152127122Y-92653660D01*
X152132398Y-92638892D01*
X152170494Y-92486510D01*
X152170894Y-92483803D01*
X152171345Y-92482715D01*
X152171922Y-92476847D01*
X152172788Y-92470997D01*
X152172614Y-92469828D01*
X152172882Y-92467108D01*
X152172882Y-92200441D01*
X152172614Y-92197720D01*
X152172788Y-92196552D01*
X152171922Y-92190701D01*
X152171345Y-92184834D01*
X152170894Y-92183745D01*
X152170494Y-92181039D01*
X152132398Y-92028657D01*
X152127122Y-92013889D01*
X152123580Y-92009109D01*
X152121304Y-92003614D01*
X152111355Y-91991491D01*
X152053638Y-91933775D01*
X152355739Y-91933775D01*
X152355739Y-92733775D01*
X152357276Y-92749382D01*
X152369221Y-92778221D01*
X152391293Y-92800293D01*
X152420132Y-92812238D01*
X152451346Y-92812238D01*
X152480185Y-92800293D01*
X152502257Y-92778221D01*
X152514202Y-92749382D01*
X152515739Y-92733775D01*
X152515739Y-92432822D01*
X152584562Y-92432822D01*
X152827343Y-92779652D01*
X152837552Y-92791556D01*
X152863876Y-92808332D01*
X152894616Y-92813756D01*
X152925092Y-92807004D01*
X152950663Y-92789104D01*
X152967439Y-92762780D01*
X152972864Y-92732041D01*
X152966111Y-92701565D01*
X152958420Y-92687898D01*
X152774446Y-92425077D01*
X152776278Y-92424376D01*
X152798218Y-92413406D01*
X153157276Y-92413406D01*
X153157276Y-92444620D01*
X153169221Y-92473459D01*
X153191293Y-92495531D01*
X153220132Y-92507476D01*
X153235739Y-92509013D01*
X153845263Y-92509013D01*
X153860870Y-92507476D01*
X153889709Y-92495531D01*
X153911781Y-92473459D01*
X153923726Y-92444620D01*
X153923726Y-92413406D01*
X153911781Y-92384567D01*
X153889709Y-92362495D01*
X153860870Y-92350550D01*
X153845263Y-92349013D01*
X153235739Y-92349013D01*
X153220132Y-92350550D01*
X153191293Y-92362495D01*
X153169221Y-92384567D01*
X153157276Y-92413406D01*
X152798218Y-92413406D01*
X152852468Y-92386281D01*
X152859182Y-92382054D01*
X152861137Y-92381245D01*
X152863336Y-92379439D01*
X152865740Y-92377927D01*
X152867122Y-92376332D01*
X152873260Y-92371296D01*
X152911354Y-92333201D01*
X152916388Y-92327066D01*
X152917986Y-92325681D01*
X152919501Y-92323272D01*
X152921303Y-92321078D01*
X152922110Y-92319127D01*
X152926340Y-92312409D01*
X152964436Y-92236219D01*
X152970041Y-92221572D01*
X152970244Y-92218704D01*
X152971345Y-92216048D01*
X152972882Y-92200441D01*
X152972882Y-92086156D01*
X152971345Y-92070549D01*
X152970244Y-92067892D01*
X152970041Y-92065025D01*
X152964436Y-92050378D01*
X152926340Y-91974188D01*
X152922110Y-91967469D01*
X152921303Y-91965519D01*
X152919501Y-91963324D01*
X152917986Y-91960916D01*
X152916388Y-91959530D01*
X152911354Y-91953396D01*
X152891734Y-91933775D01*
X154146215Y-91933775D01*
X154146215Y-92733775D01*
X154147752Y-92749382D01*
X154159697Y-92778221D01*
X154181769Y-92800293D01*
X154210608Y-92812238D01*
X154226215Y-92813775D01*
X154416691Y-92813775D01*
X154424588Y-92812997D01*
X154426697Y-92813147D01*
X154429469Y-92812516D01*
X154432298Y-92812238D01*
X154434249Y-92811429D01*
X154441989Y-92809670D01*
X154556275Y-92771575D01*
X154570595Y-92765181D01*
X154572767Y-92763297D01*
X154575423Y-92762197D01*
X154587546Y-92752248D01*
X154663736Y-92676057D01*
X154668769Y-92669923D01*
X154670367Y-92668538D01*
X154671882Y-92666130D01*
X154673685Y-92663934D01*
X154674493Y-92661982D01*
X154678721Y-92655266D01*
X154716816Y-92579076D01*
X154717252Y-92577934D01*
X154717597Y-92577470D01*
X154719936Y-92570921D01*
X154722421Y-92564429D01*
X154722461Y-92563852D01*
X154722873Y-92562702D01*
X154760969Y-92410321D01*
X154761369Y-92407615D01*
X154761821Y-92406525D01*
X154762399Y-92400651D01*
X154763264Y-92394807D01*
X154763090Y-92393638D01*
X154763358Y-92390918D01*
X154763358Y-92276632D01*
X154763090Y-92273911D01*
X154763264Y-92272743D01*
X154762399Y-92266898D01*
X154761821Y-92261025D01*
X154761369Y-92259934D01*
X154760969Y-92257229D01*
X154722873Y-92104848D01*
X154722461Y-92103697D01*
X154722421Y-92103121D01*
X154719936Y-92096628D01*
X154717597Y-92090080D01*
X154717252Y-92089615D01*
X154716816Y-92088474D01*
X154678721Y-92012283D01*
X154674494Y-92005568D01*
X154673685Y-92003614D01*
X154671880Y-92001414D01*
X154670367Y-91999011D01*
X154668771Y-91997626D01*
X154663736Y-91991492D01*
X154606020Y-91933775D01*
X154946215Y-91933775D01*
X154946215Y-92733775D01*
X154947752Y-92749382D01*
X154959697Y-92778221D01*
X154981769Y-92800293D01*
X155010608Y-92812238D01*
X155041822Y-92812238D01*
X155070661Y-92800293D01*
X155092733Y-92778221D01*
X155104678Y-92749382D01*
X155106215Y-92733775D01*
X155106215Y-92432822D01*
X155175038Y-92432822D01*
X155417819Y-92779652D01*
X155428028Y-92791556D01*
X155454352Y-92808332D01*
X155485092Y-92813756D01*
X155515568Y-92807004D01*
X155541139Y-92789104D01*
X155557915Y-92762780D01*
X155563340Y-92732041D01*
X155556587Y-92701565D01*
X155548896Y-92687898D01*
X155364922Y-92425077D01*
X155366754Y-92424376D01*
X155442944Y-92386281D01*
X155449658Y-92382054D01*
X155451613Y-92381245D01*
X155453812Y-92379439D01*
X155456216Y-92377927D01*
X155457598Y-92376332D01*
X155463736Y-92371296D01*
X155501830Y-92333201D01*
X155506864Y-92327066D01*
X155508462Y-92325681D01*
X155509977Y-92323272D01*
X155511779Y-92321078D01*
X155512586Y-92319127D01*
X155516816Y-92312409D01*
X155554912Y-92236219D01*
X155560517Y-92221572D01*
X155560720Y-92218704D01*
X155561821Y-92216048D01*
X155563358Y-92200441D01*
X155563358Y-92086156D01*
X155561821Y-92070549D01*
X155560720Y-92067892D01*
X155560517Y-92065025D01*
X155554912Y-92050378D01*
X155516816Y-91974188D01*
X155512586Y-91967469D01*
X155511779Y-91965519D01*
X155509977Y-91963324D01*
X155508462Y-91960916D01*
X155506864Y-91959530D01*
X155501830Y-91953396D01*
X155482210Y-91933775D01*
X155746215Y-91933775D01*
X155746215Y-92733775D01*
X155747752Y-92749382D01*
X155759697Y-92778221D01*
X155781769Y-92800293D01*
X155810608Y-92812238D01*
X155841822Y-92812238D01*
X155870661Y-92800293D01*
X155892733Y-92778221D01*
X155904678Y-92749382D01*
X155906215Y-92733775D01*
X155906215Y-91943781D01*
X156013509Y-91943781D01*
X156016986Y-91959073D01*
X156283653Y-92759073D01*
X156290047Y-92773393D01*
X156293789Y-92777708D01*
X156296348Y-92782825D01*
X156303928Y-92789399D01*
X156310499Y-92796975D01*
X156315612Y-92799531D01*
X156319930Y-92803276D01*
X156329445Y-92806447D01*
X156338418Y-92810934D01*
X156344118Y-92811339D01*
X156349542Y-92813147D01*
X156359550Y-92812435D01*
X156369554Y-92813147D01*
X156374974Y-92811340D01*
X156380678Y-92810935D01*
X156389655Y-92806446D01*
X156399166Y-92803276D01*
X156403481Y-92799533D01*
X156408598Y-92796975D01*
X156415172Y-92789394D01*
X156422748Y-92782824D01*
X156425304Y-92777710D01*
X156429049Y-92773393D01*
X156435443Y-92759073D01*
X156702109Y-91959073D01*
X156705586Y-91943781D01*
X156704875Y-91933775D01*
X156812881Y-91933775D01*
X156812881Y-92733775D01*
X156814418Y-92749382D01*
X156826363Y-92778221D01*
X156848435Y-92800293D01*
X156877274Y-92812238D01*
X156892881Y-92813775D01*
X157273833Y-92813775D01*
X157289440Y-92812238D01*
X157318279Y-92800293D01*
X157340351Y-92778221D01*
X157352296Y-92749382D01*
X157352296Y-92718168D01*
X157340351Y-92689329D01*
X157318279Y-92667257D01*
X157289440Y-92655312D01*
X157273833Y-92653775D01*
X156972881Y-92653775D01*
X156972881Y-92394727D01*
X157159547Y-92394727D01*
X157175154Y-92393190D01*
X157203993Y-92381245D01*
X157226065Y-92359173D01*
X157238010Y-92330334D01*
X157238010Y-92299120D01*
X157226065Y-92270281D01*
X157203993Y-92248209D01*
X157175154Y-92236264D01*
X157159547Y-92234727D01*
X156972881Y-92234727D01*
X156972881Y-92013775D01*
X157273833Y-92013775D01*
X157289440Y-92012238D01*
X157318279Y-92000293D01*
X157340351Y-91978221D01*
X157352296Y-91949382D01*
X157352296Y-91933775D01*
X157536691Y-91933775D01*
X157536691Y-92733775D01*
X157538228Y-92749382D01*
X157550173Y-92778221D01*
X157572245Y-92800293D01*
X157601084Y-92812238D01*
X157632298Y-92812238D01*
X157661137Y-92800293D01*
X157683209Y-92778221D01*
X157695154Y-92749382D01*
X157696691Y-92733775D01*
X157696691Y-92432822D01*
X157765514Y-92432822D01*
X158008295Y-92779652D01*
X158018504Y-92791556D01*
X158044828Y-92808332D01*
X158075568Y-92813756D01*
X158106044Y-92807004D01*
X158131615Y-92789104D01*
X158148391Y-92762780D01*
X158153816Y-92732041D01*
X158147063Y-92701565D01*
X158139372Y-92687898D01*
X157955398Y-92425077D01*
X157957230Y-92424376D01*
X158033420Y-92386281D01*
X158040134Y-92382054D01*
X158042089Y-92381245D01*
X158044288Y-92379439D01*
X158046692Y-92377927D01*
X158048074Y-92376332D01*
X158054212Y-92371296D01*
X158092306Y-92333201D01*
X158097340Y-92327066D01*
X158098938Y-92325681D01*
X158100453Y-92323272D01*
X158102255Y-92321078D01*
X158103062Y-92319127D01*
X158107292Y-92312409D01*
X158145388Y-92236219D01*
X158150993Y-92221572D01*
X158151196Y-92218704D01*
X158152297Y-92216048D01*
X158153834Y-92200441D01*
X158153834Y-92086156D01*
X158152297Y-92070549D01*
X158151196Y-92067892D01*
X158150993Y-92065025D01*
X158145388Y-92050378D01*
X158107292Y-91974188D01*
X158103062Y-91967469D01*
X158102255Y-91965519D01*
X158100453Y-91963324D01*
X158098938Y-91960916D01*
X158097340Y-91959530D01*
X158092306Y-91953396D01*
X158054212Y-91915301D01*
X158048074Y-91910264D01*
X158046692Y-91908670D01*
X158044288Y-91907157D01*
X158042089Y-91905352D01*
X158040134Y-91904542D01*
X158033420Y-91900316D01*
X157957230Y-91862221D01*
X157942583Y-91856616D01*
X157939716Y-91856412D01*
X157937060Y-91855312D01*
X157921453Y-91853775D01*
X157616691Y-91853775D01*
X157601084Y-91855312D01*
X157572245Y-91867257D01*
X157550173Y-91889329D01*
X157538228Y-91918168D01*
X157536691Y-91933775D01*
X157352296Y-91933775D01*
X157352296Y-91918168D01*
X157340351Y-91889329D01*
X157318279Y-91867257D01*
X157289440Y-91855312D01*
X157273833Y-91853775D01*
X156892881Y-91853775D01*
X156877274Y-91855312D01*
X156848435Y-91867257D01*
X156826363Y-91889329D01*
X156814418Y-91918168D01*
X156812881Y-91933775D01*
X156704875Y-91933775D01*
X156703374Y-91912644D01*
X156689414Y-91884725D01*
X156665832Y-91864274D01*
X156636220Y-91854403D01*
X156605084Y-91856615D01*
X156577165Y-91870575D01*
X156556713Y-91894157D01*
X156550319Y-91908477D01*
X156359547Y-92480791D01*
X156168776Y-91908477D01*
X156162382Y-91894157D01*
X156141930Y-91870575D01*
X156114011Y-91856615D01*
X156082875Y-91854403D01*
X156053263Y-91864274D01*
X156029681Y-91884726D01*
X156015721Y-91912645D01*
X156013509Y-91943781D01*
X155906215Y-91943781D01*
X155906215Y-91933775D01*
X155904678Y-91918168D01*
X155892733Y-91889329D01*
X155870661Y-91867257D01*
X155841822Y-91855312D01*
X155810608Y-91855312D01*
X155781769Y-91867257D01*
X155759697Y-91889329D01*
X155747752Y-91918168D01*
X155746215Y-91933775D01*
X155482210Y-91933775D01*
X155463736Y-91915301D01*
X155457598Y-91910264D01*
X155456216Y-91908670D01*
X155453812Y-91907157D01*
X155451613Y-91905352D01*
X155449658Y-91904542D01*
X155442944Y-91900316D01*
X155366754Y-91862221D01*
X155352107Y-91856616D01*
X155349240Y-91856412D01*
X155346584Y-91855312D01*
X155330977Y-91853775D01*
X155026215Y-91853775D01*
X155010608Y-91855312D01*
X154981769Y-91867257D01*
X154959697Y-91889329D01*
X154947752Y-91918168D01*
X154946215Y-91933775D01*
X154606020Y-91933775D01*
X154587546Y-91915301D01*
X154575423Y-91905352D01*
X154572765Y-91904251D01*
X154570595Y-91902369D01*
X154556275Y-91895975D01*
X154441989Y-91857880D01*
X154434249Y-91856120D01*
X154432298Y-91855312D01*
X154429469Y-91855033D01*
X154426697Y-91854403D01*
X154424588Y-91854552D01*
X154416691Y-91853775D01*
X154226215Y-91853775D01*
X154210608Y-91855312D01*
X154181769Y-91867257D01*
X154159697Y-91889329D01*
X154147752Y-91918168D01*
X154146215Y-91933775D01*
X152891734Y-91933775D01*
X152873260Y-91915301D01*
X152867122Y-91910264D01*
X152865740Y-91908670D01*
X152863336Y-91907157D01*
X152861137Y-91905352D01*
X152859182Y-91904542D01*
X152852468Y-91900316D01*
X152776278Y-91862221D01*
X152761631Y-91856616D01*
X152758764Y-91856412D01*
X152756108Y-91855312D01*
X152740501Y-91853775D01*
X152435739Y-91853775D01*
X152420132Y-91855312D01*
X152391293Y-91867257D01*
X152369221Y-91889329D01*
X152357276Y-91918168D01*
X152355739Y-91933775D01*
X152053638Y-91933775D01*
X152035164Y-91915301D01*
X152029030Y-91910267D01*
X152027645Y-91908670D01*
X152025237Y-91907154D01*
X152023041Y-91905352D01*
X152021089Y-91904543D01*
X152014373Y-91900316D01*
X151938183Y-91862221D01*
X151923536Y-91856616D01*
X151920669Y-91856412D01*
X151918013Y-91855312D01*
X151902406Y-91853775D01*
X151750025Y-91853775D01*
X151734418Y-91855312D01*
X151731761Y-91856412D01*
X151728895Y-91856616D01*
X151714248Y-91862221D01*
X151638057Y-91900316D01*
X151631342Y-91904542D01*
X151629388Y-91905352D01*
X151627188Y-91907156D01*
X151624785Y-91908670D01*
X151623400Y-91910265D01*
X151617266Y-91915301D01*
X151541075Y-91991491D01*
X151531126Y-92003614D01*
X151528849Y-92009110D01*
X151525309Y-92013889D01*
X151520033Y-92028657D01*
X151481937Y-92181038D01*
X151481536Y-92183743D01*
X151481085Y-92184834D01*
X151480506Y-92190707D01*
X151479642Y-92196552D01*
X151479815Y-92197720D01*
X151479548Y-92200441D01*
X151182405Y-92200441D01*
X151182405Y-92013775D01*
X151330977Y-92013775D01*
X151346584Y-92012238D01*
X151375423Y-92000293D01*
X151397495Y-91978221D01*
X151409440Y-91949382D01*
X151409440Y-91918168D01*
X151397495Y-91889329D01*
X151375423Y-91867257D01*
X151346584Y-91855312D01*
X151330977Y-91853775D01*
X150873834Y-91853775D01*
X150858227Y-91855312D01*
X150829388Y-91867257D01*
X150807316Y-91889329D01*
X150795371Y-91918168D01*
X150590412Y-91918168D01*
X150587545Y-91915301D01*
X150581411Y-91910267D01*
X150580026Y-91908670D01*
X150577618Y-91907154D01*
X150575422Y-91905352D01*
X150573470Y-91904543D01*
X150566754Y-91900316D01*
X150490564Y-91862221D01*
X150475917Y-91856616D01*
X150473050Y-91856412D01*
X150470394Y-91855312D01*
X150454787Y-91853775D01*
X150302406Y-91853775D01*
X150286799Y-91855312D01*
X150284142Y-91856412D01*
X150281276Y-91856616D01*
X150266629Y-91862221D01*
X150190438Y-91900316D01*
X150183723Y-91904542D01*
X150181769Y-91905352D01*
X150179569Y-91907156D01*
X150177166Y-91908670D01*
X150175781Y-91910265D01*
X150169647Y-91915301D01*
X150093456Y-91991491D01*
X150083507Y-92003614D01*
X150081230Y-92009110D01*
X150077690Y-92013889D01*
X150072414Y-92028657D01*
X150034318Y-92181038D01*
X150033917Y-92183743D01*
X150033466Y-92184834D01*
X150032887Y-92190707D01*
X150032023Y-92196552D01*
X150032196Y-92197720D01*
X150031929Y-92200441D01*
X149849072Y-92200441D01*
X149849072Y-91933775D01*
X149848061Y-91923518D01*
X149848145Y-91921628D01*
X149847775Y-91920612D01*
X149847535Y-91918168D01*
X149842226Y-91905350D01*
X149837478Y-91892293D01*
X149836272Y-91890976D01*
X149835590Y-91889329D01*
X149825773Y-91879512D01*
X149816396Y-91869273D01*
X149814779Y-91868518D01*
X149813518Y-91867257D01*
X149800691Y-91861944D01*
X149788110Y-91856073D01*
X149786327Y-91855994D01*
X149784679Y-91855312D01*
X149770800Y-91855312D01*
X149756925Y-91854702D01*
X149755247Y-91855312D01*
X149753465Y-91855312D01*
X149740647Y-91860620D01*
X149727590Y-91865369D01*
X149726273Y-91866574D01*
X149724626Y-91867257D01*
X149714809Y-91877073D01*
X149704570Y-91886451D01*
X149703317Y-91888565D01*
X149702554Y-91889329D01*
X149701830Y-91891075D01*
X149696577Y-91899944D01*
X149502404Y-92316025D01*
X149308234Y-91899944D01*
X149302980Y-91891075D01*
X149302257Y-91889329D01*
X149301493Y-91888565D01*
X149300241Y-91886451D01*
X149290001Y-91877073D01*
X149280185Y-91867257D01*
X149278537Y-91866574D01*
X149277221Y-91865369D01*
X149264163Y-91860620D01*
X149251346Y-91855312D01*
X149249564Y-91855312D01*
X149247886Y-91854702D01*
X149234011Y-91855312D01*
X149220132Y-91855312D01*
X149218483Y-91855994D01*
X149216701Y-91856073D01*
X149204119Y-91861944D01*
X149191293Y-91867257D01*
X149190031Y-91868518D01*
X149188415Y-91869273D01*
X149179037Y-91879512D01*
X149169221Y-91889329D01*
X149168538Y-91890976D01*
X149167333Y-91892293D01*
X149162584Y-91905350D01*
X149157276Y-91918168D01*
X149157035Y-91920612D01*
X149156666Y-91921628D01*
X149156749Y-91923518D01*
X149155739Y-91933775D01*
X149066850Y-91933775D01*
X149066850Y-91764886D01*
X158242723Y-91764886D01*
X158242723Y-92902664D01*
G37*
D11*
X173432380Y-92259726D02*
X173432380Y-93287821D01*
X173432380Y-93287821D02*
X173492857Y-93408773D01*
X173492857Y-93408773D02*
X173553333Y-93469250D01*
X173553333Y-93469250D02*
X173674285Y-93529726D01*
X173674285Y-93529726D02*
X173916190Y-93529726D01*
X173916190Y-93529726D02*
X174037142Y-93469250D01*
X174037142Y-93469250D02*
X174097619Y-93408773D01*
X174097619Y-93408773D02*
X174158095Y-93287821D01*
X174158095Y-93287821D02*
X174158095Y-92259726D01*
X174641904Y-92259726D02*
X175428095Y-92259726D01*
X175428095Y-92259726D02*
X175004761Y-92743535D01*
X175004761Y-92743535D02*
X175186190Y-92743535D01*
X175186190Y-92743535D02*
X175307142Y-92804011D01*
X175307142Y-92804011D02*
X175367618Y-92864488D01*
X175367618Y-92864488D02*
X175428095Y-92985440D01*
X175428095Y-92985440D02*
X175428095Y-93287821D01*
X175428095Y-93287821D02*
X175367618Y-93408773D01*
X175367618Y-93408773D02*
X175307142Y-93469250D01*
X175307142Y-93469250D02*
X175186190Y-93529726D01*
X175186190Y-93529726D02*
X174823333Y-93529726D01*
X174823333Y-93529726D02*
X174702380Y-93469250D01*
X174702380Y-93469250D02*
X174641904Y-93408773D01*
X126082380Y-92309726D02*
X126082380Y-93337821D01*
X126082380Y-93337821D02*
X126142857Y-93458773D01*
X126142857Y-93458773D02*
X126203333Y-93519250D01*
X126203333Y-93519250D02*
X126324285Y-93579726D01*
X126324285Y-93579726D02*
X126566190Y-93579726D01*
X126566190Y-93579726D02*
X126687142Y-93519250D01*
X126687142Y-93519250D02*
X126747619Y-93458773D01*
X126747619Y-93458773D02*
X126808095Y-93337821D01*
X126808095Y-93337821D02*
X126808095Y-92309726D01*
X127957142Y-92309726D02*
X127715237Y-92309726D01*
X127715237Y-92309726D02*
X127594285Y-92370202D01*
X127594285Y-92370202D02*
X127533809Y-92430678D01*
X127533809Y-92430678D02*
X127412856Y-92612107D01*
X127412856Y-92612107D02*
X127352380Y-92854011D01*
X127352380Y-92854011D02*
X127352380Y-93337821D01*
X127352380Y-93337821D02*
X127412856Y-93458773D01*
X127412856Y-93458773D02*
X127473333Y-93519250D01*
X127473333Y-93519250D02*
X127594285Y-93579726D01*
X127594285Y-93579726D02*
X127836190Y-93579726D01*
X127836190Y-93579726D02*
X127957142Y-93519250D01*
X127957142Y-93519250D02*
X128017618Y-93458773D01*
X128017618Y-93458773D02*
X128078095Y-93337821D01*
X128078095Y-93337821D02*
X128078095Y-93035440D01*
X128078095Y-93035440D02*
X128017618Y-92914488D01*
X128017618Y-92914488D02*
X127957142Y-92854011D01*
X127957142Y-92854011D02*
X127836190Y-92793535D01*
X127836190Y-92793535D02*
X127594285Y-92793535D01*
X127594285Y-92793535D02*
X127473333Y-92854011D01*
X127473333Y-92854011D02*
X127412856Y-92914488D01*
X127412856Y-92914488D02*
X127352380Y-93035440D01*
D13*
G36*
X125915784Y-93861824D02*
G01*
X125818291Y-93861824D01*
X125734236Y-93833806D01*
X125680579Y-93780148D01*
X125652217Y-93723425D01*
X125618641Y-93589119D01*
X125618641Y-93494528D01*
X125652217Y-93360223D01*
X125680579Y-93303500D01*
X125734235Y-93249843D01*
X125818291Y-93221824D01*
X125915784Y-93221824D01*
X125915784Y-93861824D01*
G37*
G36*
X128506260Y-93861824D02*
G01*
X128408767Y-93861824D01*
X128324712Y-93833806D01*
X128271055Y-93780148D01*
X128242693Y-93723425D01*
X128209117Y-93589119D01*
X128209117Y-93494528D01*
X128242693Y-93360223D01*
X128271055Y-93303500D01*
X128324711Y-93249843D01*
X128408767Y-93221824D01*
X128506260Y-93221824D01*
X128506260Y-93861824D01*
G37*
G36*
X128755149Y-94110713D02*
G01*
X124571288Y-94110713D01*
X124571288Y-93233621D01*
X124660177Y-93233621D01*
X124672123Y-93262460D01*
X124694194Y-93284532D01*
X124723033Y-93296478D01*
X124754247Y-93296479D01*
X124783086Y-93284533D01*
X124795209Y-93274584D01*
X124819951Y-93249842D01*
X124904006Y-93221824D01*
X124954229Y-93221824D01*
X125038282Y-93249841D01*
X125091941Y-93303499D01*
X125120303Y-93360223D01*
X125153880Y-93494528D01*
X125153880Y-93589119D01*
X125120303Y-93723425D01*
X125091940Y-93780149D01*
X125038283Y-93833806D01*
X124954230Y-93861824D01*
X124904005Y-93861824D01*
X124819950Y-93833805D01*
X124795209Y-93809065D01*
X124783086Y-93799116D01*
X124754247Y-93787170D01*
X124723033Y-93787171D01*
X124694194Y-93799117D01*
X124672123Y-93821189D01*
X124660177Y-93850028D01*
X124660178Y-93881242D01*
X124672124Y-93910081D01*
X124682073Y-93922203D01*
X124720169Y-93960298D01*
X124732292Y-93970247D01*
X124734947Y-93971347D01*
X124737119Y-93973230D01*
X124751439Y-93979624D01*
X124865724Y-94017719D01*
X124873463Y-94019478D01*
X124875415Y-94020287D01*
X124878243Y-94020565D01*
X124881016Y-94021196D01*
X124883124Y-94021046D01*
X124891022Y-94021824D01*
X124967213Y-94021824D01*
X124975110Y-94021046D01*
X124977219Y-94021196D01*
X124979991Y-94020565D01*
X124982820Y-94020287D01*
X124984771Y-94019478D01*
X124992511Y-94017719D01*
X125106797Y-93979624D01*
X125121117Y-93973230D01*
X125123287Y-93971347D01*
X125125945Y-93970247D01*
X125138068Y-93960298D01*
X125214258Y-93884107D01*
X125219293Y-93877972D01*
X125220889Y-93876588D01*
X125222402Y-93874184D01*
X125224207Y-93871985D01*
X125225016Y-93870030D01*
X125229243Y-93863316D01*
X125267338Y-93787125D01*
X125267774Y-93785983D01*
X125268119Y-93785519D01*
X125270458Y-93778970D01*
X125272943Y-93772478D01*
X125272983Y-93771901D01*
X125273395Y-93770751D01*
X125311491Y-93618370D01*
X125311891Y-93615664D01*
X125312343Y-93614574D01*
X125312921Y-93608700D01*
X125313786Y-93602856D01*
X125313612Y-93601687D01*
X125313880Y-93598967D01*
X125313880Y-93484681D01*
X125458641Y-93484681D01*
X125458641Y-93598967D01*
X125458908Y-93601687D01*
X125458735Y-93602856D01*
X125459599Y-93608700D01*
X125460178Y-93614574D01*
X125460629Y-93615664D01*
X125461030Y-93618370D01*
X125499126Y-93770751D01*
X125499537Y-93771901D01*
X125499578Y-93772478D01*
X125502062Y-93778970D01*
X125504402Y-93785519D01*
X125504746Y-93785983D01*
X125505183Y-93787125D01*
X125543278Y-93863316D01*
X125547504Y-93870030D01*
X125548314Y-93871985D01*
X125550119Y-93874184D01*
X125551632Y-93876588D01*
X125553226Y-93877970D01*
X125558263Y-93884108D01*
X125634454Y-93960298D01*
X125646576Y-93970247D01*
X125649233Y-93971347D01*
X125651404Y-93973230D01*
X125665724Y-93979624D01*
X125780010Y-94017719D01*
X125787749Y-94019478D01*
X125789701Y-94020287D01*
X125792529Y-94020565D01*
X125795302Y-94021196D01*
X125797410Y-94021046D01*
X125805308Y-94021824D01*
X125995784Y-94021824D01*
X126011391Y-94020287D01*
X126040230Y-94008342D01*
X126062302Y-93986270D01*
X126074247Y-93957431D01*
X126075784Y-93941824D01*
X126075784Y-93430979D01*
X126298274Y-93430979D01*
X126298274Y-93462193D01*
X126310219Y-93491032D01*
X126332291Y-93513104D01*
X126361130Y-93525049D01*
X126376737Y-93526586D01*
X126986260Y-93526586D01*
X127001867Y-93525049D01*
X127030706Y-93513104D01*
X127052778Y-93491032D01*
X127064723Y-93462193D01*
X127064723Y-93430979D01*
X127052778Y-93402140D01*
X127030706Y-93380068D01*
X127001867Y-93368123D01*
X126986260Y-93366586D01*
X126376737Y-93366586D01*
X126361130Y-93368123D01*
X126332291Y-93380068D01*
X126310219Y-93402140D01*
X126298274Y-93430979D01*
X126075784Y-93430979D01*
X126075784Y-93233621D01*
X127250653Y-93233621D01*
X127262599Y-93262460D01*
X127284670Y-93284532D01*
X127313509Y-93296478D01*
X127344723Y-93296479D01*
X127373562Y-93284533D01*
X127385685Y-93274584D01*
X127410427Y-93249842D01*
X127494482Y-93221824D01*
X127544705Y-93221824D01*
X127628758Y-93249841D01*
X127682417Y-93303499D01*
X127710779Y-93360223D01*
X127744356Y-93494528D01*
X127744356Y-93589119D01*
X127710779Y-93723425D01*
X127682416Y-93780149D01*
X127628759Y-93833806D01*
X127544706Y-93861824D01*
X127494481Y-93861824D01*
X127410426Y-93833805D01*
X127385685Y-93809065D01*
X127373562Y-93799116D01*
X127344723Y-93787170D01*
X127313509Y-93787171D01*
X127284670Y-93799117D01*
X127262599Y-93821189D01*
X127250653Y-93850028D01*
X127250654Y-93881242D01*
X127262600Y-93910081D01*
X127272549Y-93922203D01*
X127310645Y-93960298D01*
X127322768Y-93970247D01*
X127325423Y-93971347D01*
X127327595Y-93973230D01*
X127341915Y-93979624D01*
X127456200Y-94017719D01*
X127463939Y-94019478D01*
X127465891Y-94020287D01*
X127468719Y-94020565D01*
X127471492Y-94021196D01*
X127473600Y-94021046D01*
X127481498Y-94021824D01*
X127557689Y-94021824D01*
X127565586Y-94021046D01*
X127567695Y-94021196D01*
X127570467Y-94020565D01*
X127573296Y-94020287D01*
X127575247Y-94019478D01*
X127582987Y-94017719D01*
X127697273Y-93979624D01*
X127711593Y-93973230D01*
X127713763Y-93971347D01*
X127716421Y-93970247D01*
X127728544Y-93960298D01*
X127804734Y-93884107D01*
X127809769Y-93877972D01*
X127811365Y-93876588D01*
X127812878Y-93874184D01*
X127814683Y-93871985D01*
X127815492Y-93870030D01*
X127819719Y-93863316D01*
X127857814Y-93787125D01*
X127858250Y-93785983D01*
X127858595Y-93785519D01*
X127860934Y-93778970D01*
X127863419Y-93772478D01*
X127863459Y-93771901D01*
X127863871Y-93770751D01*
X127901967Y-93618370D01*
X127902367Y-93615664D01*
X127902819Y-93614574D01*
X127903397Y-93608700D01*
X127904262Y-93602856D01*
X127904088Y-93601687D01*
X127904356Y-93598967D01*
X127904356Y-93484681D01*
X128049117Y-93484681D01*
X128049117Y-93598967D01*
X128049384Y-93601687D01*
X128049211Y-93602856D01*
X128050075Y-93608700D01*
X128050654Y-93614574D01*
X128051105Y-93615664D01*
X128051506Y-93618370D01*
X128089602Y-93770751D01*
X128090013Y-93771901D01*
X128090054Y-93772478D01*
X128092538Y-93778970D01*
X128094878Y-93785519D01*
X128095222Y-93785983D01*
X128095659Y-93787125D01*
X128133754Y-93863316D01*
X128137980Y-93870030D01*
X128138790Y-93871985D01*
X128140595Y-93874184D01*
X128142108Y-93876588D01*
X128143702Y-93877970D01*
X128148739Y-93884108D01*
X128224930Y-93960298D01*
X128237052Y-93970247D01*
X128239709Y-93971347D01*
X128241880Y-93973230D01*
X128256200Y-93979624D01*
X128370486Y-94017719D01*
X128378225Y-94019478D01*
X128380177Y-94020287D01*
X128383005Y-94020565D01*
X128385778Y-94021196D01*
X128387886Y-94021046D01*
X128395784Y-94021824D01*
X128586260Y-94021824D01*
X128601867Y-94020287D01*
X128630706Y-94008342D01*
X128652778Y-93986270D01*
X128664723Y-93957431D01*
X128666260Y-93941824D01*
X128666260Y-93141824D01*
X128664723Y-93126217D01*
X128652778Y-93097378D01*
X128630706Y-93075306D01*
X128601867Y-93063361D01*
X128586260Y-93061824D01*
X128395784Y-93061824D01*
X128387885Y-93062601D01*
X128385777Y-93062452D01*
X128383004Y-93063082D01*
X128380177Y-93063361D01*
X128378224Y-93064169D01*
X128370485Y-93065930D01*
X128256199Y-93104025D01*
X128241879Y-93110419D01*
X128239708Y-93112301D01*
X128237052Y-93113402D01*
X128224930Y-93123351D01*
X128148739Y-93199541D01*
X128143702Y-93205678D01*
X128142108Y-93207061D01*
X128140595Y-93209464D01*
X128138790Y-93211664D01*
X128137980Y-93213618D01*
X128133754Y-93220333D01*
X128095659Y-93296523D01*
X128095222Y-93297664D01*
X128094878Y-93298129D01*
X128092538Y-93304677D01*
X128090054Y-93311170D01*
X128090013Y-93311746D01*
X128089602Y-93312897D01*
X128051506Y-93465278D01*
X128051105Y-93467983D01*
X128050654Y-93469074D01*
X128050075Y-93474947D01*
X128049211Y-93480792D01*
X128049384Y-93481960D01*
X128049117Y-93484681D01*
X127904356Y-93484681D01*
X127904088Y-93481960D01*
X127904262Y-93480792D01*
X127903397Y-93474947D01*
X127902819Y-93469074D01*
X127902367Y-93467983D01*
X127901967Y-93465278D01*
X127863871Y-93312897D01*
X127863459Y-93311746D01*
X127863419Y-93311170D01*
X127860934Y-93304677D01*
X127858595Y-93298129D01*
X127858250Y-93297664D01*
X127857814Y-93296523D01*
X127819719Y-93220333D01*
X127815492Y-93213618D01*
X127814683Y-93211664D01*
X127812878Y-93209464D01*
X127811365Y-93207061D01*
X127809769Y-93205676D01*
X127804734Y-93199542D01*
X127728544Y-93123351D01*
X127716421Y-93113402D01*
X127713763Y-93112301D01*
X127711593Y-93110419D01*
X127697273Y-93104025D01*
X127582988Y-93065929D01*
X127575246Y-93064168D01*
X127573296Y-93063361D01*
X127570468Y-93063082D01*
X127567695Y-93062452D01*
X127565586Y-93062601D01*
X127557689Y-93061824D01*
X127481498Y-93061824D01*
X127473599Y-93062601D01*
X127471491Y-93062452D01*
X127468718Y-93063082D01*
X127465891Y-93063361D01*
X127463938Y-93064169D01*
X127456199Y-93065930D01*
X127341914Y-93104026D01*
X127327594Y-93110419D01*
X127325422Y-93112302D01*
X127322768Y-93113402D01*
X127310645Y-93123351D01*
X127272549Y-93161446D01*
X127262600Y-93173568D01*
X127250654Y-93202407D01*
X127250653Y-93233621D01*
X126075784Y-93233621D01*
X126075784Y-93141824D01*
X126074247Y-93126217D01*
X126062302Y-93097378D01*
X126040230Y-93075306D01*
X126011391Y-93063361D01*
X125995784Y-93061824D01*
X125805308Y-93061824D01*
X125797409Y-93062601D01*
X125795301Y-93062452D01*
X125792528Y-93063082D01*
X125789701Y-93063361D01*
X125787748Y-93064169D01*
X125780009Y-93065930D01*
X125665723Y-93104025D01*
X125651403Y-93110419D01*
X125649232Y-93112301D01*
X125646576Y-93113402D01*
X125634454Y-93123351D01*
X125558263Y-93199541D01*
X125553226Y-93205678D01*
X125551632Y-93207061D01*
X125550119Y-93209464D01*
X125548314Y-93211664D01*
X125547504Y-93213618D01*
X125543278Y-93220333D01*
X125505183Y-93296523D01*
X125504746Y-93297664D01*
X125504402Y-93298129D01*
X125502062Y-93304677D01*
X125499578Y-93311170D01*
X125499537Y-93311746D01*
X125499126Y-93312897D01*
X125461030Y-93465278D01*
X125460629Y-93467983D01*
X125460178Y-93469074D01*
X125459599Y-93474947D01*
X125458735Y-93480792D01*
X125458908Y-93481960D01*
X125458641Y-93484681D01*
X125313880Y-93484681D01*
X125313612Y-93481960D01*
X125313786Y-93480792D01*
X125312921Y-93474947D01*
X125312343Y-93469074D01*
X125311891Y-93467983D01*
X125311491Y-93465278D01*
X125273395Y-93312897D01*
X125272983Y-93311746D01*
X125272943Y-93311170D01*
X125270458Y-93304677D01*
X125268119Y-93298129D01*
X125267774Y-93297664D01*
X125267338Y-93296523D01*
X125229243Y-93220333D01*
X125225016Y-93213618D01*
X125224207Y-93211664D01*
X125222402Y-93209464D01*
X125220889Y-93207061D01*
X125219293Y-93205676D01*
X125214258Y-93199542D01*
X125138068Y-93123351D01*
X125125945Y-93113402D01*
X125123287Y-93112301D01*
X125121117Y-93110419D01*
X125106797Y-93104025D01*
X124992512Y-93065929D01*
X124984770Y-93064168D01*
X124982820Y-93063361D01*
X124979992Y-93063082D01*
X124977219Y-93062452D01*
X124975110Y-93062601D01*
X124967213Y-93061824D01*
X124891022Y-93061824D01*
X124883123Y-93062601D01*
X124881015Y-93062452D01*
X124878242Y-93063082D01*
X124875415Y-93063361D01*
X124873462Y-93064169D01*
X124865723Y-93065930D01*
X124751438Y-93104026D01*
X124737118Y-93110419D01*
X124734946Y-93112302D01*
X124732292Y-93113402D01*
X124720169Y-93123351D01*
X124682073Y-93161446D01*
X124672124Y-93173568D01*
X124660178Y-93202407D01*
X124660177Y-93233621D01*
X124571288Y-93233621D01*
X124571288Y-92972935D01*
X128755149Y-92972935D01*
X128755149Y-94110713D01*
G37*
D14*
%TO.C,U1*%
X132502949Y-108198045D02*
G75*
G02*
X135042690Y-105621951I2558031J18065D01*
G01*
X132466597Y-125942209D02*
X132502949Y-108198045D01*
X135042690Y-105621952D02*
X180726588Y-105621952D01*
D10*
X172867638Y-128512016D02*
X172867390Y-128725915D01*
X174153900Y-128723889D02*
X172883900Y-128725889D01*
X174163662Y-128512016D02*
X174163900Y-128723889D01*
D14*
X180762681Y-128481951D02*
X135042690Y-128481950D01*
X183302681Y-108161953D02*
X183302422Y-125905858D01*
D10*
X183333662Y-121503638D02*
X183806647Y-121503638D01*
X183806647Y-112563638D02*
X183333662Y-112563638D01*
X183806647Y-121503638D02*
X183806647Y-112563638D01*
D14*
X135042690Y-128481950D02*
G75*
G02*
X132466550Y-125942209I-18190J2557950D01*
G01*
X180726588Y-105622212D02*
G75*
G02*
X183302681Y-108161953I18029J-2558066D01*
G01*
X183302422Y-125905858D02*
G75*
G02*
X180762681Y-128481952I-2558084J-18012D01*
G01*
D15*
%TO.C,U4*%
X117550000Y-108725000D02*
X117550000Y-109975000D01*
X117840000Y-109015000D02*
X117840000Y-114985000D01*
X117840000Y-114985000D02*
X125460000Y-114985000D01*
X117850000Y-109025000D02*
X117850000Y-109775000D01*
X117850000Y-109775000D02*
X119650000Y-109775000D01*
X117850000Y-111275000D02*
X118600000Y-111275000D01*
X118600000Y-111275000D02*
X118600000Y-114225000D01*
X118600000Y-114225000D02*
X121650000Y-114225000D01*
X118800000Y-108725000D02*
X117550000Y-108725000D01*
X119650000Y-109025000D02*
X117850000Y-109025000D01*
X119650000Y-109775000D02*
X119650000Y-109025000D01*
X121150000Y-109025000D02*
X121150000Y-109775000D01*
X121150000Y-109775000D02*
X122150000Y-109775000D01*
X122150000Y-109025000D02*
X121150000Y-109025000D01*
X122150000Y-109775000D02*
X122150000Y-109025000D01*
X123650000Y-109025000D02*
X123650000Y-109775000D01*
X123650000Y-109775000D02*
X125450000Y-109775000D01*
X124700000Y-111275000D02*
X124700000Y-114225000D01*
X124700000Y-114225000D02*
X121650000Y-114225000D01*
X125450000Y-109025000D02*
X123650000Y-109025000D01*
X125450000Y-109775000D02*
X125450000Y-109025000D01*
X125450000Y-111275000D02*
X124700000Y-111275000D01*
X125460000Y-109015000D02*
X117840000Y-109015000D01*
X125460000Y-114985000D02*
X125460000Y-109015000D01*
%TO.C,U5*%
X117550000Y-118725000D02*
X117550000Y-119975000D01*
X117840000Y-119015000D02*
X117840000Y-124985000D01*
X117840000Y-124985000D02*
X125460000Y-124985000D01*
X117850000Y-119025000D02*
X117850000Y-119775000D01*
X117850000Y-119775000D02*
X119650000Y-119775000D01*
X117850000Y-121275000D02*
X118600000Y-121275000D01*
X118600000Y-121275000D02*
X118600000Y-124225000D01*
X118600000Y-124225000D02*
X121650000Y-124225000D01*
X118800000Y-118725000D02*
X117550000Y-118725000D01*
X119650000Y-119025000D02*
X117850000Y-119025000D01*
X119650000Y-119775000D02*
X119650000Y-119025000D01*
X121150000Y-119025000D02*
X121150000Y-119775000D01*
X121150000Y-119775000D02*
X122150000Y-119775000D01*
X122150000Y-119025000D02*
X121150000Y-119025000D01*
X122150000Y-119775000D02*
X122150000Y-119025000D01*
X123650000Y-119025000D02*
X123650000Y-119775000D01*
X123650000Y-119775000D02*
X125450000Y-119775000D01*
X124700000Y-121275000D02*
X124700000Y-124225000D01*
X124700000Y-124225000D02*
X121650000Y-124225000D01*
X125450000Y-119025000D02*
X123650000Y-119025000D01*
X125450000Y-119775000D02*
X125450000Y-119025000D01*
X125450000Y-121275000D02*
X124700000Y-121275000D01*
X125460000Y-119015000D02*
X117840000Y-119015000D01*
X125460000Y-124985000D02*
X125460000Y-119015000D01*
D14*
%TO.C,U2*%
X140350000Y-84110000D02*
X140350000Y-101890000D01*
X142890000Y-81570000D02*
X163210000Y-81570000D01*
X142890000Y-104430000D02*
X163210000Y-104430000D01*
X165750000Y-101890000D02*
X165750000Y-84110000D01*
X140350000Y-84110000D02*
G75*
G02*
X142890000Y-81570000I2540001J-1D01*
G01*
X142890000Y-104430000D02*
G75*
G02*
X140350000Y-101890000I1J2540001D01*
G01*
X163210000Y-81570000D02*
G75*
G02*
X165750000Y-84110000I0J-2540000D01*
G01*
X165750000Y-101890000D02*
G75*
G02*
X163210000Y-104430000I-2540000J0D01*
G01*
D16*
%TO.C,U3*%
X166550000Y-103100000D02*
X166550000Y-82800000D01*
X169342500Y-82800000D02*
X182250000Y-82800000D01*
X182250000Y-82800000D02*
X182250000Y-103100000D01*
X182250000Y-103100000D02*
X169342500Y-103100000D01*
D14*
%TO.C,U6*%
X139750000Y-101890000D02*
X139750000Y-84110000D01*
X137210000Y-104430000D02*
X116890000Y-104430000D01*
X137210000Y-81570000D02*
X116890000Y-81570000D01*
X114350000Y-84110000D02*
X114350000Y-101890000D01*
X139750000Y-101890000D02*
G75*
G02*
X137210000Y-104430000I-2540001J1D01*
G01*
X137210000Y-81570000D02*
G75*
G02*
X139750000Y-84110000I-1J-2540001D01*
G01*
X116890000Y-104430000D02*
G75*
G02*
X114350000Y-101890000I0J2540000D01*
G01*
X114350000Y-84110000D02*
G75*
G02*
X116890000Y-81570000I2540000J0D01*
G01*
%TD*%
M02*
