%TF.GenerationSoftware,KiCad,Pcbnew,9.0.0*%
%TF.CreationDate,2026-04-11T12:52:10+05:30*%
%TF.ProjectId,E-01 Drive,452d3031-2044-4726-9976-652e6b696361,1*%
%TF.SameCoordinates,Original*%
%TF.FileFunction,Copper,L2,Bot*%
%TF.FilePolarity,Positive*%
%FSLAX46Y46*%
G04 Gerber Fmt 4.6, Leading zero omitted, Abs format (unit mm)*
G04 Created by KiCad (PCBNEW 9.0.0) date 2026-04-11 12:52:10*
%MOMM*%
%LPD*%
G01*
G04 APERTURE LIST*
G04 Aperture macros list*
%AMRoundRect*
0 Rectangle with rounded corners*
0 $1 Rounding radius*
0 $2 $3 $4 $5 $6 $7 $8 $9 X,Y pos of 4 corners*
0 Add a 4 corners polygon primitive as box body*
4,1,4,$2,$3,$4,$5,$6,$7,$8,$9,$2,$3,0*
0 Add four circle primitives for the rounded corners*
1,1,$1+$1,$2,$3*
1,1,$1+$1,$4,$5*
1,1,$1+$1,$6,$7*
1,1,$1+$1,$8,$9*
0 Add four rect primitives between the rounded corners*
20,1,$1+$1,$2,$3,$4,$5,0*
20,1,$1+$1,$4,$5,$6,$7,0*
20,1,$1+$1,$6,$7,$8,$9,0*
20,1,$1+$1,$8,$9,$2,$3,0*%
G04 Aperture macros list end*
%TA.AperFunction,ComponentPad*%
%ADD10O,1.700000X1.700000*%
%TD*%
%TA.AperFunction,ComponentPad*%
%ADD11R,1.700000X1.700000*%
%TD*%
%TA.AperFunction,ComponentPad*%
%ADD12RoundRect,0.250000X-0.600000X-0.750000X0.600000X-0.750000X0.600000X0.750000X-0.600000X0.750000X0*%
%TD*%
%TA.AperFunction,ComponentPad*%
%ADD13O,1.700000X2.000000*%
%TD*%
%TA.AperFunction,ComponentPad*%
%ADD14C,1.700000*%
%TD*%
%TA.AperFunction,ComponentPad*%
%ADD15C,2.000000*%
%TD*%
%TA.AperFunction,ComponentPad*%
%ADD16C,1.905000*%
%TD*%
%TA.AperFunction,ComponentPad*%
%ADD17R,2.000000X2.000000*%
%TD*%
%TA.AperFunction,ViaPad*%
%ADD18C,0.600000*%
%TD*%
%TA.AperFunction,Conductor*%
%ADD19C,0.500000*%
%TD*%
%TA.AperFunction,Conductor*%
%ADD20C,0.300000*%
%TD*%
G04 APERTURE END LIST*
D10*
%TO.P,U1,1*%
%TO.N,N/C*%
X139084640Y-127102017D03*
%TO.P,U1,2*%
X141484640Y-127102017D03*
%TO.P,U1,3*%
%TO.N,net-5*%
X144084640Y-127102017D03*
%TO.P,U1,4*%
%TO.N,net-6*%
X146584640Y-127102017D03*
%TO.P,U1,5*%
%TO.N,N/C*%
X148984640Y-127102017D03*
%TO.P,U1,6*%
X151684640Y-127202017D03*
%TO.P,U1,7*%
X154184640Y-127202017D03*
%TO.P,U1,8*%
X156784640Y-127202017D03*
%TO.P,U1,9*%
X159284640Y-127202017D03*
%TO.P,U1,10*%
%TO.N,net-1*%
X161784640Y-127202017D03*
%TO.P,U1,11*%
%TO.N,N/C*%
X164384640Y-127202017D03*
D11*
%TO.P,U1,12*%
X166884640Y-127202017D03*
%TO.P,U1,13*%
X176984640Y-106902017D03*
D10*
%TO.P,U1,14*%
%TO.N,net-4*%
X174484640Y-106902017D03*
%TO.P,U1,15*%
X171884640Y-106802017D03*
%TO.P,U1,16*%
%TO.N,net-1*%
X169384640Y-106802017D03*
%TO.P,U1,17*%
%TO.N,net-7*%
X166884640Y-106802017D03*
%TO.P,U1,18*%
%TO.N,N/C*%
X164284640Y-106802017D03*
%TO.P,U1,19*%
%TO.N,net-8*%
X161784640Y-106802017D03*
%TO.P,U1,20*%
%TO.N,net-9*%
X159184640Y-106802017D03*
%TO.P,U1,21*%
%TO.N,net-10*%
X156684640Y-106802017D03*
%TO.P,U1,22*%
%TO.N,net-11*%
X154184640Y-106802017D03*
%TO.P,U1,23*%
%TO.N,net-12*%
X151584640Y-106802017D03*
%TO.P,U1,24*%
%TO.N,N/C*%
X149084640Y-106802017D03*
%TO.P,U1,25*%
X146484640Y-106802017D03*
%TO.P,U1,26*%
X143984640Y-106802017D03*
%TO.P,U1,27*%
X141484640Y-106802017D03*
%TO.P,U1,28*%
%TO.N,net-1*%
X138884640Y-106902017D03*
%TD*%
D12*
%TO.P,U4,1*%
%TO.N,net-2*%
X120400000Y-111475000D03*
D13*
%TO.P,U4,2*%
%TO.N,net-1*%
X122900000Y-111475000D03*
%TD*%
D12*
%TO.P,U5,1*%
%TO.N,net-1*%
X120400000Y-121475000D03*
D13*
%TO.P,U5,2*%
%TO.N,net-2*%
X122900000Y-121475000D03*
%TD*%
D11*
%TO.P,U2,1*%
%TO.N,N/C*%
X159400000Y-82840000D03*
D14*
%TO.P,U2,2*%
X156860000Y-82840000D03*
%TO.P,U2,3*%
X154320000Y-82840000D03*
%TO.P,U2,4*%
X151780000Y-82840000D03*
%TO.P,U2,5*%
X149240000Y-82840000D03*
%TO.P,U2,6*%
X146700000Y-82840000D03*
D15*
%TO.P,U2,7*%
%TO.N,net-1*%
X144160000Y-90460000D03*
%TO.P,U2,8*%
%TO.N,net-3*%
X144160000Y-93000000D03*
D14*
%TO.P,U2,9*%
%TO.N,net-12*%
X146700000Y-103160000D03*
%TO.P,U2,10*%
%TO.N,net-11*%
X149240000Y-103160000D03*
%TO.P,U2,11*%
%TO.N,net-10*%
X151780000Y-103160000D03*
%TO.P,U2,12*%
%TO.N,net-9*%
X154320000Y-103160000D03*
%TO.P,U2,13*%
%TO.N,net-8*%
X156860000Y-103160000D03*
%TO.P,U2,14*%
%TO.N,net-7*%
X159400000Y-103160000D03*
%TO.P,U2,15*%
%TO.N,net-4*%
X164480000Y-95540000D03*
%TO.P,U2,16*%
%TO.N,net-1*%
X164480000Y-93000000D03*
%TO.P,U2,17*%
%TO.N,N/C*%
X164480000Y-90460000D03*
%TD*%
D16*
%TO.P,U3,AD0*%
%TO.N,N/C*%
X168070000Y-99300000D03*
%TO.P,U3,GND*%
X168070000Y-86600000D03*
%TO.P,U3,INT*%
X168070000Y-101840000D03*
%TO.P,U3,SCL*%
X168070000Y-89140000D03*
%TO.P,U3,SDA*%
X168070000Y-91680000D03*
%TO.P,U3,VCC*%
X168070000Y-84060000D03*
%TO.P,U3,XCL*%
X168070000Y-96760000D03*
%TO.P,U3,XDA*%
X168070000Y-94220000D03*
%TD*%
D17*
%TO.P,U6,1*%
%TO.N,N/C*%
X118156101Y-95538601D03*
D15*
%TO.P,U6,2*%
%TO.N,net-1*%
X135936101Y-95538601D03*
%TO.P,U6,3*%
X135936101Y-92998601D03*
%TO.P,U6,4*%
X118156101Y-92998601D03*
%TD*%
D18*
%TO.N,*%
X172000000Y-94000000D03*
%TO.N,net-1*%
X133000000Y-97750000D03*
X132250000Y-100750000D03*
%TD*%
D19*
%TO.N,net-1*%
X165500000Y-88750000D02*
X162250000Y-88750000D01*
X162250000Y-90150000D02*
X161940000Y-90460000D01*
X167650000Y-86600000D02*
X165500000Y-88750000D01*
X168070000Y-86600000D02*
X167650000Y-86600000D01*
X162250000Y-88750000D02*
X162250000Y-90150000D01*
D20*
%TO.N,*%
X172000000Y-91250000D02*
X169890000Y-89140000D01*
X169890000Y-89140000D02*
X168070000Y-89140000D01*
X172000000Y-94000000D02*
X172000000Y-91250000D01*
D19*
%TO.N,net-4*%
X170500000Y-104000000D02*
X171884640Y-105384640D01*
X166750000Y-104000000D02*
X170500000Y-104000000D01*
X171884640Y-105384640D02*
X171884640Y-106802017D01*
X165250000Y-96310000D02*
X165250000Y-102500000D01*
X165250000Y-102500000D02*
X166750000Y-104000000D01*
X164480000Y-95540000D02*
X165250000Y-96310000D01*
X170810000Y-84060000D02*
X174484640Y-87734640D01*
X168070000Y-84060000D02*
X170810000Y-84060000D01*
X174484640Y-87734640D02*
X174484640Y-106902017D01*
X171984640Y-106902017D02*
X171884640Y-106802017D01*
X174484640Y-106902017D02*
X171984640Y-106902017D01*
%TO.N,net-1*%
X138884640Y-107884640D02*
X138884640Y-106902017D01*
X141750000Y-110750000D02*
X138884640Y-107884640D01*
X167000000Y-110750000D02*
X141750000Y-110750000D01*
X169384640Y-106802017D02*
X169384640Y-108365360D01*
X169384640Y-108365360D02*
X167000000Y-110750000D01*
D20*
%TO.N,net-7*%
X160811400Y-104571400D02*
X159400000Y-103160000D01*
X163829000Y-104571400D02*
X160811400Y-104571400D01*
X165784600Y-106527000D02*
X163829000Y-104571400D01*
X166609623Y-106527000D02*
X165784600Y-106527000D01*
X166884640Y-106802017D02*
X166609623Y-106527000D01*
X166884600Y-106802000D02*
X166884623Y-106802000D01*
X166884623Y-106802000D02*
X166884640Y-106802017D01*
%TO.N,net-8*%
X157660000Y-103160000D02*
X156860000Y-103160000D01*
X161302000Y-106802000D02*
X157660000Y-103160000D01*
X161784600Y-106802000D02*
X161302000Y-106802000D01*
%TO.N,net-9*%
X154910000Y-103160000D02*
X154320000Y-103160000D01*
X158552017Y-106802017D02*
X154910000Y-103160000D01*
X159184640Y-106802017D02*
X158552017Y-106802017D01*
%TO.N,net-11*%
X149910000Y-103160000D02*
X149240000Y-103160000D01*
X153552000Y-106802000D02*
X149910000Y-103160000D01*
X154184600Y-106802000D02*
X153552000Y-106802000D01*
%TO.N,net-10*%
X156052017Y-106802017D02*
X156684640Y-106802017D01*
X152410000Y-103160000D02*
X156052017Y-106802017D01*
X151780000Y-103160000D02*
X152410000Y-103160000D01*
%TO.N,net-12*%
X150794017Y-106802017D02*
X147152000Y-103160000D01*
X147152000Y-103160000D02*
X146700000Y-103160000D01*
X151584640Y-106802017D02*
X150794017Y-106802017D01*
D19*
%TO.N,net-1*%
X133000000Y-95934702D02*
X135936101Y-92998601D01*
X133000000Y-97750000D02*
X133000000Y-95934702D01*
X132250000Y-113500000D02*
X132250000Y-100750000D01*
X137000000Y-118250000D02*
X132250000Y-113500000D01*
X152832623Y-118250000D02*
X137000000Y-118250000D01*
X161784640Y-127202017D02*
X152832623Y-118250000D01*
X161940000Y-90460000D02*
X144160000Y-90460000D01*
%TO.N,net-3*%
X138160000Y-99000000D02*
X144160000Y-93000000D01*
%TO.N,*%
X121500000Y-98882500D02*
X121500000Y-99000000D01*
X118156101Y-95538601D02*
X121500000Y-98882500D01*
%TO.N,net-3*%
X121500000Y-99000000D02*
X138160000Y-99000000D01*
%TO.N,net-1*%
X164480000Y-93000000D02*
X161940000Y-90460000D01*
%TD*%
M02*
